<svg width="33" height="33" viewBox="0 0 33 33" fill="none" xmlns="http://www.w3.org/2000/svg">
<path d="M23.0209 28.6113C22.8552 28.6113 22.6962 28.5455 22.579 28.4283L17.5815 23.4312C17.5176 23.3673 17.4684 23.2904 17.4371 23.2056C17.4058 23.1209 17.3933 23.0303 17.4004 22.9403C17.4074 22.8502 17.434 22.7627 17.4781 22.6839C17.5222 22.6051 17.5829 22.5368 17.656 22.4837L22.9316 18.6505C23.052 18.563 23.1997 18.5214 23.3481 18.5331C23.4965 18.5447 23.6358 18.609 23.741 18.7142L28.0166 22.9905C28.0901 23.0639 28.144 23.1544 28.1737 23.2539C28.2033 23.3534 28.2077 23.4587 28.1864 23.5604C28.1652 23.662 28.1189 23.7567 28.0519 23.836C27.9848 23.9153 27.8991 23.9766 27.8024 24.0144L24.7836 25.1957L23.6024 28.2144C23.5566 28.3315 23.4765 28.432 23.3727 28.5029C23.2689 28.5738 23.1461 28.6117 23.0203 28.6117L23.0209 28.6113Z" fill="url(#paint0_linear_396_4427)"/>
<path d="M9.4798 28.6113C9.35407 28.6113 9.23127 28.5734 9.12743 28.5026C9.02359 28.4317 8.94354 28.3311 8.89774 28.214L7.71649 25.1953L4.69805 24.014C4.60137 23.9762 4.51563 23.9149 4.44858 23.8356C4.38154 23.7563 4.33529 23.6616 4.31403 23.56C4.29277 23.4584 4.29715 23.3531 4.32679 23.2536C4.35643 23.1541 4.41039 23.0635 4.4838 22.9901L8.75943 18.7138C8.86466 18.6086 9.00399 18.5444 9.15236 18.5327C9.30073 18.521 9.4484 18.5627 9.5688 18.6502L14.8444 22.4833C14.9176 22.5364 14.9784 22.6047 15.0226 22.6835C15.0668 22.7624 15.0933 22.8499 15.1004 22.94C15.1075 23.0301 15.095 23.1207 15.0637 23.2055C15.0324 23.2903 14.9831 23.3673 14.9192 23.4312L9.92168 28.4281C9.86366 28.4862 9.79478 28.5322 9.71896 28.5637C9.64315 28.5951 9.56188 28.6113 9.4798 28.6113Z" fill="url(#paint1_linear_396_4427)"/>
<path d="M16.2504 24.5641C15.8142 24.564 15.3893 24.4255 15.0367 24.1685L13.7107 23.2052C13.5717 23.1037 13.4039 23.0492 13.2318 23.0495H11.5929C11.1566 23.0503 10.7314 22.9126 10.3784 22.6562C10.0255 22.3998 9.76308 22.0379 9.629 21.6228L9.12275 20.064C9.0699 19.9002 8.96622 19.7574 8.82675 19.6565L7.50044 18.6932C7.14705 18.4374 6.88401 18.076 6.74922 17.6611C6.61443 17.2462 6.61486 16.7992 6.75044 16.3846L7.25669 14.8258C7.31025 14.6622 7.31025 14.4859 7.25669 14.3223L6.75044 12.7635C6.61486 12.3488 6.61444 11.9019 6.74923 11.4869C6.88401 11.072 7.14705 10.7107 7.50044 10.4549L8.82637 9.49148C8.96585 9.39062 9.06953 9.24792 9.12237 9.08411L9.62862 7.52529C9.76269 7.11014 10.0251 6.74828 10.378 6.49186C10.731 6.23543 11.1562 6.09769 11.5925 6.09848H13.2317C13.4038 6.09884 13.5715 6.04433 13.7106 5.94286L15.0366 4.97948C15.3891 4.72239 15.8141 4.58386 16.2503 4.58386C16.6866 4.58386 17.1115 4.72239 17.464 4.97948L18.79 5.94286C18.929 6.04432 19.0968 6.09884 19.2689 6.09848H20.9079C21.3441 6.09765 21.7694 6.23534 22.1223 6.49172C22.4753 6.7481 22.7378 7.10992 22.8719 7.52504L23.3781 9.08386C23.4309 9.24767 23.5346 9.39037 23.6741 9.49123L25.0004 10.4549C25.3538 10.7106 25.6169 11.072 25.7516 11.4869C25.8864 11.9018 25.886 12.3488 25.7504 12.7634L25.2442 14.3222C25.1906 14.4858 25.1906 14.6622 25.2442 14.8257L25.7504 16.3846C25.886 16.7992 25.8864 17.2462 25.7517 17.6611C25.6169 18.076 25.3538 18.4374 25.0004 18.6932L23.6744 19.6563C23.5349 19.7572 23.4312 19.8999 23.3784 20.0637L22.8721 21.6225C22.7381 22.0376 22.4756 22.3995 22.1227 22.6559C21.7698 22.9123 21.3445 23.0501 20.9082 23.0493H19.2692C19.0971 23.0489 18.9293 23.1034 18.7902 23.2049L17.4641 24.1688C17.1116 24.4257 16.6866 24.5641 16.2504 24.5641Z" fill="url(#paint2_linear_396_4427)"/>
<path d="M18.8101 18.6304C18.7203 18.6304 18.6319 18.6086 18.5525 18.5668L16.2495 17.3562L13.9466 18.5668C13.8552 18.6149 13.7521 18.6364 13.649 18.629C13.546 18.6215 13.4471 18.5854 13.3635 18.5247C13.2799 18.464 13.215 18.3811 13.1761 18.2854C13.1371 18.1897 13.1258 18.085 13.1432 17.9831L13.5831 15.4188L11.72 13.6027C11.646 13.5306 11.5936 13.4392 11.5689 13.3389C11.5441 13.2386 11.5479 13.1334 11.5798 13.0351C11.6117 12.9369 11.6705 12.8495 11.7495 12.7829C11.8285 12.7163 11.9246 12.6732 12.0268 12.6583L14.6018 12.2842L15.7532 9.95108C15.799 9.85844 15.8697 9.78044 15.9574 9.7259C16.0452 9.67136 16.1464 9.64246 16.2497 9.64246C16.353 9.64246 16.4543 9.67136 16.542 9.7259C16.6298 9.78044 16.7005 9.85844 16.7462 9.95108L17.8977 12.2842L20.4727 12.6583C20.5749 12.6732 20.671 12.7163 20.7499 12.7829C20.8289 12.8495 20.8877 12.9369 20.9196 13.0351C20.9516 13.1334 20.9553 13.2386 20.9306 13.3389C20.9058 13.4392 20.8535 13.5306 20.7795 13.6027L18.916 15.4187L19.3559 17.983C19.3695 18.0625 19.3656 18.144 19.3445 18.2218C19.3233 18.2996 19.2854 18.3719 19.2335 18.4335C19.1815 18.4952 19.1167 18.5447 19.0435 18.5787C18.9704 18.6127 18.8907 18.6303 18.8101 18.6303V18.6304Z" fill="url(#paint3_linear_396_4427)"/>
<defs>
<linearGradient id="paint0_linear_396_4427" x1="26.723" y1="27.1347" x2="19.2626" y2="19.6743" gradientUnits="userSpaceOnUse">
<stop stop-color="#C21500"/>
<stop offset="1" stop-color="#F85032"/>
</linearGradient>
<linearGradient id="paint1_linear_396_4427" x1="13.2293" y1="26.7386" x2="4.76074" y2="18.27" gradientUnits="userSpaceOnUse">
<stop stop-color="#C21500"/>
<stop offset="1" stop-color="#F85032"/>
</linearGradient>
<linearGradient id="paint2_linear_396_4427" x1="24.2159" y1="22.5395" x2="7.11562" y2="5.43923" gradientUnits="userSpaceOnUse">
<stop stop-color="#F2994A"/>
<stop offset="1" stop-color="#F2C94C"/>
</linearGradient>
<linearGradient id="paint3_linear_396_4427" x1="26.0907" y1="24.6913" x2="10.6927" y2="9.29345" gradientUnits="userSpaceOnUse">
<stop stop-color="#F2C94E"/>
<stop offset="1" stop-color="white"/>
</linearGradient>
</defs>
</svg>
