<svg width="32" height="33" viewBox="0 0 32 33" fill="none" xmlns="http://www.w3.org/2000/svg">
<rect y="0.5" width="32" height="32" rx="16" fill="#FFD8AB"/>
<g clip-path="url(#clip0_395_6851)">
<path fill-rule="evenodd" clip-rule="evenodd" d="M19.4137 9.59534C19.7565 9.59534 20.0343 9.87323 20.0343 10.216V13.1379H18.793V10.216C18.793 9.87323 19.0709 9.59534 19.4137 9.59534Z" fill="#C03A2B"/>
<path fill-rule="evenodd" clip-rule="evenodd" d="M21.2762 13.1379C21.1048 13.1379 20.9658 12.999 20.9658 12.8276C20.9658 9.87156 22.287 7.83539 23.4175 6.9897C23.5547 6.88686 23.7492 6.91465 23.852 7.05177C23.9549 7.18889 23.9271 7.38341 23.79 7.48625C23.564 7.65539 21.5865 9.23722 21.5865 12.8276C21.5865 12.999 21.4476 13.1379 21.2762 13.1379Z" fill="#547580"/>
<path fill-rule="evenodd" clip-rule="evenodd" d="M24.069 19.3448V13.6391C24.069 13.2963 23.7911 13.0184 23.4483 13.0184H11.9655C9.84741 13.0184 7 13.3741 7 15.4919V18.5953C7 18.9381 7.27789 19.216 7.62069 19.216L7.93103 19.3448H24.069Z" fill="#E64C3C"/>
<path fill-rule="evenodd" clip-rule="evenodd" d="M25 17.9762V18.5969C24.999 18.9393 24.7217 19.2166 24.3793 19.2176H24.069V19.3448H7.93103L7.62069 19.2176C7.27832 19.2166 7.00102 18.9393 7 18.5969V17.9762L7.67345 16.6293C7.83085 16.314 8.15278 16.1146 8.50517 16.1141H12.3224C12.6748 16.1146 12.9967 16.314 13.1541 16.6293L13.57 17.461C13.7274 17.7763 14.0493 17.9757 14.4017 17.9762H17.5983C17.9507 17.9757 18.2726 17.7763 18.43 17.461L18.8459 16.6293C19.0033 16.314 19.3252 16.1146 19.6776 16.1141H23.4948C23.7037 16.1136 23.9063 16.1848 24.069 16.3159C24.178 16.3989 24.2663 16.5062 24.3266 16.6293L25 17.9762Z" fill="#C03A2B"/>
<path fill-rule="evenodd" clip-rule="evenodd" d="M9.85513 17.8894L9.91534 17.8006C10.0274 17.6353 10.214 17.5362 10.4138 17.5359C10.6138 17.5359 10.8008 17.635 10.9131 17.8006L10.9733 17.8894L11.653 18.1103L11.7538 18.0737C11.9417 18.0062 12.1508 18.036 12.3124 18.1532C12.4742 18.2708 12.5672 18.461 12.5607 18.6609L12.5573 18.7683L12.9784 19.3449L13.0815 19.3759C13.2737 19.4316 13.4259 19.5788 13.4877 19.7691C13.5495 19.9594 13.5129 20.168 13.39 20.3259L13.3242 20.4106V21.1244L13.39 21.2088C13.5134 21.3672 13.55 21.5766 13.4877 21.7674C13.4258 21.9571 13.2743 22.1041 13.0827 22.16L12.9797 22.1911L12.5598 22.7689L12.5632 22.8763C12.5697 23.0762 12.4767 23.2664 12.3149 23.384C12.1533 23.5013 11.9441 23.5309 11.7563 23.4632L11.6554 23.4269L10.9758 23.6475L10.9156 23.7366C10.8025 23.9024 10.6144 24.0012 10.4138 24.0001C10.2137 24.0001 10.0267 23.9009 9.91441 23.7353L9.85513 23.6463L9.17548 23.4256L9.07461 23.4619C8.88679 23.5297 8.67761 23.5 8.51599 23.3828C8.35422 23.2651 8.26124 23.075 8.26772 22.8751L8.27113 22.7677L7.84906 22.1898L7.74603 22.1588C7.55446 22.1026 7.403 21.9555 7.34134 21.7656C7.27904 21.5747 7.31567 21.3653 7.4391 21.207L7.50489 21.1225V20.4088L7.4391 20.324C7.31684 20.1666 7.28025 19.9589 7.34134 19.7691C7.40266 19.5795 7.55364 19.4323 7.74479 19.3759L7.84782 19.3449L8.26772 18.767L8.26555 18.6621C8.25907 18.4622 8.35205 18.2721 8.51382 18.1544C8.67545 18.0372 8.88455 18.0075 9.07244 18.075L9.1733 18.1116L9.85513 17.8894Z" fill="#35495E"/>
<path d="M10.414 22.3195C11.271 22.3195 11.9658 21.6248 11.9658 20.7678C11.9658 19.9108 11.271 19.2161 10.414 19.2161C9.55704 19.2161 8.8623 19.9108 8.8623 20.7678C8.8623 21.6248 9.55704 22.3195 10.414 22.3195Z" fill="#547580"/>
<path fill-rule="evenodd" clip-rule="evenodd" d="M21.028 17.8894L21.0882 17.8006C21.2003 17.6353 21.3869 17.5362 21.5866 17.5359C21.7866 17.5359 21.9737 17.635 22.0859 17.8006L22.1462 17.8894L22.8258 18.1103L22.9267 18.0737C23.1146 18.0062 23.3237 18.036 23.4853 18.1532C23.6471 18.2708 23.74 18.461 23.7336 18.6609L23.7302 18.7683L24.1513 19.3449L24.2543 19.3759C24.4465 19.4316 24.5987 19.5788 24.6606 19.7691C24.7223 19.9594 24.6857 20.168 24.5628 20.3259L24.497 20.4106V21.1244L24.5628 21.2088C24.6862 21.3672 24.7229 21.5766 24.6606 21.7674C24.5987 21.9571 24.4471 22.1041 24.2556 22.16L24.1525 22.1911L23.7326 22.7689L23.7361 22.8763C23.7425 23.0762 23.6495 23.2664 23.4878 23.384C23.3262 23.5013 23.117 23.5309 22.9292 23.4632L22.8283 23.4269L22.1486 23.6475L22.0884 23.7366C21.9754 23.9024 21.7873 24.0012 21.5866 24.0001C21.3866 24.0001 21.1995 23.9009 21.0873 23.7353L21.028 23.6463L20.3483 23.4256L20.2475 23.4619C20.0596 23.5297 19.8505 23.5 19.6888 23.3828C19.5271 23.2651 19.4341 23.075 19.4406 22.8751L19.444 22.7677L19.0241 22.1898L18.9211 22.1588C18.7287 22.1032 18.5763 21.956 18.5142 21.7656C18.4519 21.5747 18.4885 21.3653 18.6119 21.207L18.6777 21.1225V20.4088L18.6119 20.324C18.4891 20.1661 18.4524 19.9576 18.5142 19.7673C18.576 19.5783 18.7269 19.432 18.9176 19.3759L19.0207 19.3449L19.4406 18.767L19.4372 18.6596C19.4307 18.4597 19.5237 18.2696 19.6854 18.1519C19.8471 18.0347 20.0562 18.005 20.2441 18.0725L20.3449 18.1091L21.028 17.8894Z" fill="#35495E"/>
<path d="M21.5859 22.3195C22.4429 22.3195 23.1376 21.6248 23.1376 20.7678C23.1376 19.9108 22.4429 19.2161 21.5859 19.2161C20.7289 19.2161 20.0342 19.9108 20.0342 20.7678C20.0342 21.6248 20.7289 22.3195 21.5859 22.3195Z" fill="#547580"/>
<path fill-rule="evenodd" clip-rule="evenodd" d="M18.7929 11.3783V13.0169L16.844 13.02H16.2233L11.7295 13.0231L14.1005 10.9158C14.2136 10.8135 14.3608 10.7571 14.5133 10.7576H18.1723C18.5146 10.7586 18.7919 11.0359 18.7929 11.3783Z" fill="#B0D3F0"/>
<path fill-rule="evenodd" clip-rule="evenodd" d="M16.2236 10.7576H16.8443V13.02H16.2236V10.7576Z" fill="#C03A2B"/>
<path fill-rule="evenodd" clip-rule="evenodd" d="M16.3107 14.5609H15.3797C15.2083 14.5609 15.0693 14.4219 15.0693 14.2505C15.0693 14.0791 15.2083 13.9402 15.3797 13.9402H16.3107C16.4821 13.9402 16.6211 14.0791 16.6211 14.2505C16.6211 14.4219 16.4821 14.5609 16.3107 14.5609Z" fill="#35495E"/>
<path fill-rule="evenodd" clip-rule="evenodd" d="M22.8279 14.8712H24.0693V16.1126H22.5176V15.1816C22.5176 15.0102 22.6565 14.8712 22.8279 14.8712Z" fill="#F0C419"/>
<path d="M16.9312 17.0436H15.3795C15.0367 17.0436 14.7588 17.3215 14.7588 17.6643V20.7677C14.7588 21.1105 15.0367 21.3884 15.3795 21.3884H16.9312C17.274 21.3884 17.5519 21.1105 17.5519 20.7677V17.6643C17.5519 17.3215 17.274 17.0436 16.9312 17.0436ZM16.9312 17.6643V18.285H15.3795V17.6643H16.9312ZM15.3795 18.9056H16.9312V19.5263H15.3795V18.9056ZM15.3795 20.7677V20.147H16.9312V20.7677H15.3795Z" fill="#F0C419"/>
<path d="M24.2241 7.55172C24.6526 7.55172 25 7.20436 25 6.77586C25 6.34737 24.6526 6 24.2241 6C23.7956 6 23.4482 6.34737 23.4482 6.77586C23.4482 7.20436 23.7956 7.55172 24.2241 7.55172Z" fill="#35495E"/>
<path fill-rule="evenodd" clip-rule="evenodd" d="M9.48323 13.3179V14.252C9.48221 14.5944 9.20491 14.8717 8.86254 14.8727H7.09668C7.3884 13.9603 8.34737 13.4824 9.46771 13.2434L9.48323 13.3179Z" fill="#F3D55B"/>
</g>
<defs>
<clipPath id="clip0_395_6851">
<rect width="18" height="18" fill="white" transform="translate(7 6)"/>
</clipPath>
</defs>
</svg>
