<svg width="233" height="118" viewBox="0 0 233 118" fill="none" xmlns="http://www.w3.org/2000/svg">
<g opacity="0.1" clip-path="url(#clip0_258_13358)">
<path d="M143.486 51.4095C143.486 51.4095 201.631 21.682 190.388 56.1582C179.145 90.6344 231.354 64.6712 231.354 64.6712" stroke="white" stroke-width="2.9995" stroke-miterlimit="10" stroke-linecap="round"/>
<path d="M115.804 69.7234C115.583 69.1572 115.866 68.5203 116.436 68.3009L124.236 65.4064L125.036 67.4569L117.236 70.3514C116.666 70.5708 116.025 70.2896 115.804 69.7234Z" fill="white" stroke="white" stroke-width="0.945471" stroke-miterlimit="10"/>
<path d="M119.737 53.8872L111.936 56.7817C111.366 57.0012 110.725 56.72 110.504 56.1538C110.283 55.5876 110.566 54.9508 111.136 54.7313L118.936 51.8368L119.737 53.8872Z" fill="white" stroke="white" stroke-width="0.945471" stroke-miterlimit="10"/>
<path d="M120.964 49.7897C120.612 48.8887 119.592 48.4414 118.684 48.7906L117.88 49.1001L127.985 74.9967L128.79 74.6872C129.697 74.3381 130.147 73.3247 129.796 72.4237" fill="white"/>
<path d="M129.737 72.5315L138.8 69.1753C141.458 68.1523 142.778 65.1827 141.748 62.5426C141.443 61.7603 141.716 60.8721 142.41 60.3932L145.858 58.0117C146.739 57.4032 147.086 56.275 146.699 55.2813L145.085 51.1449C144.697 50.1511 143.675 49.5499 142.611 49.69L138.447 50.2378C137.61 50.348 136.805 49.8748 136.5 49.0924C135.469 46.4524 132.479 45.1416 129.821 46.1647L120.758 49.5209L129.737 72.5315Z" fill="white"/>
<path d="M119.293 45.5096C118.941 44.6086 117.921 44.1612 117.013 44.5104L116.209 44.82L126.314 70.7166L127.119 70.407C128.026 70.0579 128.476 69.0445 128.125 68.1435" fill="white"/>
<path d="M128.066 68.2514L137.129 64.8951C139.787 63.8721 141.107 60.9025 140.077 58.2624C139.772 57.4802 140.045 56.592 140.739 56.113L144.187 53.7315C145.068 53.123 145.415 51.9948 145.028 51.0011L143.414 46.8647C143.026 45.871 142.004 45.2698 140.94 45.4098L136.776 45.9577C135.939 46.0679 135.134 45.5946 134.829 44.8123C133.799 42.1723 130.808 40.8614 128.15 41.8845L119.087 45.2407L128.066 68.2514Z" fill="white"/>
<path d="M126.09 55.7562L134.566 55.9951C135.057 56.009 135.347 55.453 135.052 55.063L134.018 53.6958C133.764 53.3602 133.94 52.8762 134.351 52.7792L136.763 52.2105C137.428 52.0537 137.331 51.0855 136.648 51.0617L129.305 50.8056C128.821 50.7887 128.526 51.3284 128.804 51.7221L129.639 52.905C129.877 53.241 129.699 53.7087 129.297 53.8055L125.968 54.6078C125.303 54.7681 125.406 55.7369 126.09 55.7562Z" fill="black"/>
<path d="M82.1081 72.7357C82.1081 72.7357 21.2779 98.5001 37.2914 74.1726C53.3048 49.8451 27.1774 44.6052 16.594 46.5223C6.01079 48.4394 1.84277 50.7483 1.84277 50.7483" stroke="white" stroke-width="2.9995" stroke-miterlimit="10" stroke-linecap="round"/>
<path d="M100.83 56.0696C100.548 55.3382 99.7252 54.9695 98.987 55.2445L90.1907 58.5214C87.3383 59.6032 85.909 62.7765 86.9983 65.6092C87.3211 66.4485 87.0235 67.3983 86.2783 67.9076L82.5729 70.4401C81.6262 71.0871 81.2483 72.2935 81.6582 73.3598L83.3649 77.798C83.7749 78.8643 84.8663 79.5134 86.0065 79.3691L90.4684 78.8041C91.3659 78.6904 92.2252 79.2015 92.5479 80.0408C93.6372 82.8735 96.8326 84.293 99.685 83.2112L108.465 79.9401C109.21 79.6628 109.585 78.8369 109.301 78.0993L100.83 56.0696Z" fill="white"/>
<path d="M99.3219 51.9321C99.0406 51.2007 98.2174 50.8321 97.4792 51.1071L88.6829 54.384C85.8305 55.4657 84.4012 58.639 85.4905 61.4717C85.8132 62.3111 85.5157 63.2608 84.7705 63.7702L81.0651 66.3026C80.1184 66.9496 79.7404 68.1561 80.1504 69.2223L81.8571 73.6606C82.2671 74.7268 83.3585 75.376 84.4986 75.2316L88.9606 74.6666C89.8581 74.553 90.7173 75.064 91.0401 75.9034C92.1294 78.7361 95.3248 80.1555 98.1772 79.0737L106.958 75.8027C107.702 75.5254 108.077 74.6994 107.793 73.9618L99.3219 51.9321Z" fill="white"/>
<path d="M96.3311 59.6127L100.125 69.9419" stroke="black" stroke-width="2.72681" stroke-miterlimit="10" stroke-linecap="round"/>
<path d="M93.7432 63.1156L95.9877 69.2263" stroke="black" stroke-width="2.72681" stroke-miterlimit="10" stroke-linecap="round"/>
<path d="M97.5953 43.9253C97.7578 44.0554 97.9709 44.0813 98.1525 44.0116C98.2417 43.9774 98.3233 43.9201 98.3875 43.8409C98.5828 43.6003 98.5447 43.2482 98.3025 43.0542L93.7706 39.4255C93.5284 39.2317 93.1737 39.2694 92.9783 39.5098C92.783 39.7505 92.8211 40.1026 93.0632 40.2965L97.5953 43.9253Z" fill="white"/>
<path d="M110.868 39.053C110.969 39.0687 111.068 39.0565 111.158 39.0224C111.339 38.9527 111.479 38.7913 111.512 38.5866L112.41 32.8745C112.458 32.5691 112.248 32.2831 111.941 32.2353C111.633 32.1876 111.345 32.3966 111.297 32.7017L110.398 38.4137C110.35 38.7192 110.561 39.0053 110.868 39.053Z" fill="white"/>
<path d="M104.315 40.6598C104.605 40.5485 104.749 40.2246 104.637 39.9364L100.442 29.1505C100.33 28.8623 100.003 28.7189 99.7131 28.8302C99.4229 28.9416 99.2784 29.2656 99.3905 29.5538L103.586 40.3397C103.698 40.6279 104.025 40.7712 104.315 40.6598Z" fill="white"/>
<path d="M127.878 80.8542C127.716 80.7228 127.504 80.6952 127.321 80.7633C127.232 80.7968 127.15 80.8533 127.085 80.9319C126.887 81.1709 126.923 81.5233 127.163 81.7193L131.664 85.3859C131.905 85.5817 132.26 85.5469 132.457 85.3081C132.654 85.0691 132.619 84.7168 132.379 84.5207L127.878 80.8542Z" fill="white"/>
<path d="M114.564 85.6153C114.463 85.5988 114.364 85.61 114.274 85.6435C114.092 85.7117 113.95 85.8719 113.916 86.0763L112.97 91.7807C112.919 92.0857 113.127 92.3734 113.434 92.4237C113.741 92.4741 114.031 92.2674 114.081 91.9628L115.028 86.2584C115.079 85.9534 114.871 85.6657 114.564 85.6153Z" fill="white"/>
<path d="M121.13 84.0633C120.838 84.1722 120.691 84.4949 120.801 84.784L124.905 95.6046C125.015 95.8937 125.34 96.0399 125.631 95.931C125.922 95.822 126.069 95.4993 125.959 95.2102L121.855 84.3896C121.746 84.1004 121.421 83.9544 121.13 84.0633Z" fill="white"/>
</g>
<defs>
<clipPath id="clip0_258_13358">
<rect width="232" height="118" fill="white" transform="translate(0.5)"/>
</clipPath>
</defs>
</svg>
