<svg width="96" height="126" viewBox="0 0 96 126" fill="none" xmlns="http://www.w3.org/2000/svg">
<g opacity="0.14">
<path d="M69.6268 75.8485C65.9716 82.5365 60.9177 86.8737 54.8003 88.6503C56.0668 88.0205 57.2718 87.212 58.4075 86.2232C61.1264 83.8568 63.4537 80.4737 65.326 76.1695C68.3468 69.223 70.1506 59.6637 70.1506 50.5989C70.1506 43.0279 70.1506 35.8767 67.3396 30.7622C65.5799 27.5613 62.8274 25.3233 58.9199 23.9788C75.6053 26.9368 75.6053 37.6116 75.6053 50.5989C75.6053 59.5579 73.3707 68.9974 69.6268 75.8485ZM54.686 89.4587V95.1804H41.6529V89.3338C41.8247 89.3841 41.9984 89.4292 42.1713 89.4761C43.2589 89.7866 44.4 90.0174 45.5974 90.1544C46.2617 90.2498 46.9471 90.3001 47.6555 90.3001C47.7141 90.3001 47.771 90.2967 47.829 90.2967C47.9428 90.2984 48.0554 90.3001 48.1697 90.3001C50.4279 90.3001 52.5821 90.0208 54.6232 89.4743C54.6436 89.4674 54.6653 89.4639 54.686 89.4587ZM27.4038 75.8416C23.29 68.6938 20.734 59.0218 20.734 50.5989L20.7335 49.6378C20.7271 42.0997 20.7217 35.5904 24.1273 30.8385C26.3332 27.7609 29.8842 25.6512 35.0031 24.4333C31.8161 25.7536 29.5059 27.7418 27.9638 30.4447C25.1505 35.3753 25.1547 41.9852 25.1599 49.6378L25.1604 50.5989C25.1604 59.1329 27.2221 68.9333 30.5415 76.1764C32.3949 80.2222 35.2 84.7537 39.2085 87.5677C33.6697 84.9255 29.859 80.1042 27.4038 75.8416ZM41.6529 18.0455H54.686V22.4746H50.9579C50.5222 22.4608 50.0807 22.4503 49.6321 22.4434C48.9971 22.3983 48.3385 22.3757 47.6555 22.3757C46.8111 22.3757 46.0066 22.4087 45.2362 22.4746H41.6529V18.0455ZM55.4897 86.126C57.4441 83.7579 59.1158 80.3783 60.4591 76.0793C62.6264 69.1432 63.9204 59.5961 63.9204 50.5434C63.9204 42.9845 63.9204 35.8454 61.9074 30.7501C60.6175 27.485 58.5841 25.2175 55.6863 23.873C69.4164 26.6748 69.4176 37.452 69.4176 50.5989C69.4176 59.5683 67.6367 69.0183 64.6534 75.878C62.4692 80.9005 58.7066 86.6985 52.5675 88.7752C53.6006 88.1142 54.5768 87.2311 55.4897 86.126ZM33.397 30.4326C31.3829 35.3458 31.3864 41.9436 31.3899 49.584L31.3906 50.5434C31.3906 59.0635 32.8694 68.8517 35.251 76.0845C37.3286 82.396 39.9817 86.6777 43.0638 88.7665C37.3015 86.6829 33.5078 80.8901 31.2075 75.8711C27.9298 68.7181 25.8934 59.034 25.8934 50.5989L25.8929 49.6378C25.8875 42.0893 25.8835 35.5696 28.6 30.8073C30.661 27.1953 34.2009 24.9208 39.5128 23.8625C36.6683 25.162 34.6693 27.3289 33.397 30.4326ZM55.1438 75.9977C56.2925 69.0877 56.9779 59.5752 56.9779 50.5538C56.9779 43.0227 56.9779 35.9114 55.9149 30.8507C55.1403 27.164 53.848 24.7421 51.9447 23.4791C63.1852 25.6183 63.1874 36.7823 63.1874 50.5434C63.1874 59.5267 61.9057 68.9905 59.7596 75.8607C58.1443 81.0289 55.3344 87.0212 50.7221 88.9105C52.565 86.9171 54.0468 82.6007 55.1438 75.9977ZM40.4205 30.5349C39.3573 35.4135 39.3586 41.9852 39.3608 49.5944V50.5538C39.3608 62.1377 41.0889 84.7763 46.2336 89.3668C41.0993 88.2998 37.8299 81.5736 35.9471 75.8537C33.5881 68.6904 32.1234 58.9923 32.1234 50.5434L32.1229 49.584C32.1194 42.0216 32.1157 35.4898 34.0755 30.7102C35.8872 26.2897 39.2916 23.8834 44.6779 23.2692C42.6158 24.4281 41.2326 26.8101 40.4205 30.5349ZM48.5361 89.4223V23.2085H48.9882C56.2439 24.0152 56.2451 35.7864 56.2451 50.5538C56.2451 59.5371 55.5631 69.0044 54.4209 75.878C53.0142 84.3425 50.9847 89.0007 48.5361 89.4223ZM47.8033 23.2085V89.4154C45.5868 88.9435 43.5827 84.1777 42.1285 75.8745C40.8736 68.7077 40.0938 59.0045 40.0938 50.5538V49.5944C40.0914 42.0268 40.0903 35.4915 41.1363 30.6911C42.1689 25.9566 44.1496 23.5555 47.3347 23.2085H47.8033ZM50.097 109.599C50.097 110.577 49.3652 111.385 48.4213 111.509V111.509L48.1475 111.52C48.1357 111.52 48.1263 111.523 48.1152 111.525C47.0772 111.496 46.2417 110.644 46.2417 109.599C46.2417 108.536 47.1061 107.672 48.1692 107.672C49.2322 107.672 50.097 108.536 50.097 109.599ZM72.7982 30.731C69.6825 26.2203 64.0811 23.6301 55.4188 22.7626V17.3133H48.2355V0.0893555H47.5025V17.3133H40.9199V22.7487C32.2453 23.5832 26.6409 26.0745 23.5315 30.4118C19.9889 35.3545 19.9946 42.294 20.0005 49.6378L20.001 50.5989C20.001 59.1433 22.5945 68.9558 26.7688 76.2076C29.5745 81.0809 34.1147 86.6621 40.9305 89.0788L40.9199 95.9125H47.8026V106.967C46.5091 107.146 45.5087 108.258 45.5087 109.599C45.5087 110.897 46.443 111.98 47.6737 112.212L43.2917 125.076L43.986 125.312L47.0186 116.409L45.5141 125.132L46.2365 125.256L47.8026 116.174V125.194H48.5356V116.174L50.1024 125.256L50.8248 125.132L49.3201 116.409L52.3527 125.312L53.0465 125.076L48.6652 112.212C49.8959 111.98 50.83 110.897 50.83 109.599C50.83 108.258 49.8297 107.146 48.5356 106.967V95.9125H55.4188V89.2453C57.6165 88.5687 59.6776 87.5694 61.5849 86.2475C64.9959 83.8845 67.9183 80.5032 70.2701 76.199C74.0699 69.2455 76.3391 59.6741 76.3391 50.5989C76.3391 43.0175 76.3391 35.8558 72.7982 30.731Z" fill="white"/>
<path d="M78.8521 105.556V102.286H81.35L78.8521 105.556ZM75.392 102.286H77.7279V105.491L75.392 102.286ZM77.7279 97.3853V101.162H75.3148L77.7279 97.3853ZM81.4349 101.162H78.8521V97.3107L81.4349 101.162ZM86.5774 102.286V101.162H82.7855L78.8521 95.2913V87H77.7279V95.299L73.9823 101.162H70V102.286H74.0028L77.7279 107.4V116.448H78.8521V107.408L82.7649 102.286H86.5774Z" fill="white"/>
<path d="M88.1411 32.6263H89.0044V33.8115L88.1411 32.6263ZM89.0044 29.89V31.3737H88.0562L89.0044 29.89ZM91.3076 31.3737H90.2569V29.8051L91.3076 31.3737ZM90.2569 33.8818V32.6263H91.2169L90.2569 33.8818ZM92.7913 32.6263H95.2613V31.3737H92.8147L90.2569 27.5575V22H89.0044V27.5663L86.5695 31.3737H84V32.6263H86.5958L89.0044 35.9362V42H90.2569V35.9421L92.7913 32.6263Z" fill="white"/>
<path d="M5.05963 67.3904V66.3731H5.83664L5.05963 67.3904ZM3.35063 66.3731H4.04905V67.332L3.35063 66.3731ZM4.04905 64.1588V65.3603H3.27877L4.04905 64.1588ZM5.91077 65.3603H5.05963V64.0914L5.91077 65.3603ZM5.05963 62.2724V57.7764H4.04905V62.2791L2.0773 65.3603H0V66.3731H2.0975L4.04905 69.05V73.9569H5.05963V69.0567L7.10997 66.3731H9.10867V65.3603H7.13019L5.05963 62.2724Z" fill="white"/>
</g>
</svg>
