<svg width="116" height="35" viewBox="0 0 116 35" fill="none" xmlns="http://www.w3.org/2000/svg">
<g clip-path="url(#clip0_7_16979)">
<path d="M66.3451 5.16795H70.2669V7.46602C70.3405 7.39824 70.3827 7.37643 70.3976 7.34294C70.4523 7.22219 70.4938 7.09521 70.5478 6.97447C71.1408 5.6634 72.4246 4.86959 74.0088 5.0137C74.5009 5.05811 74.9663 5.18275 75.3958 5.42814C76.1218 5.84179 76.5975 6.44474 76.7813 7.26504C76.7954 7.32658 76.7712 7.41694 76.8987 7.4185C76.919 7.37799 76.9487 7.33437 76.9652 7.28607C77.3806 6.04433 78.2881 5.36192 79.5296 5.08615C80.2963 4.91555 81.0669 4.95372 81.8015 5.24195C82.9461 5.68988 83.6392 6.54913 83.9443 7.71764C84.0366 8.07053 84.0922 8.44289 84.0937 8.80591C84.107 11.5223 84.1015 14.2387 84.1023 16.9551C84.1023 16.9847 84.0976 17.0143 84.0937 17.054H79.9763C79.9763 16.9606 79.9763 16.8764 79.9763 16.7923C79.9763 14.5924 79.9763 12.3925 79.9763 10.1925C79.9763 9.90976 79.9537 9.6301 79.859 9.36056C79.5414 8.46003 78.6988 8.31514 78.0659 8.53248C77.7193 8.65167 77.4964 8.91186 77.354 9.24138C77.2304 9.52649 77.1991 9.82797 77.1999 10.1365C77.2014 12.3519 77.2007 14.5674 77.2007 16.7829C77.2007 16.8679 77.2007 16.9528 77.2007 17.0509H73.2452C73.2452 16.9769 73.2452 16.8943 73.2452 16.8125C73.2452 14.5893 73.2452 12.366 73.2452 10.1427C73.2452 9.85835 73.2132 9.58102 73.1107 9.31382C72.8924 8.74515 72.4363 8.44134 71.8167 8.44913C71.2229 8.45692 70.8005 8.76151 70.5908 9.33486C70.4985 9.58803 70.4664 9.84978 70.4664 10.1178C70.468 12.341 70.4664 14.5643 70.4664 16.7876V17.0525H66.3428V5.16795H66.3451Z" fill="white"/>
<path d="M9.62258 15.369C10.5801 16.9878 10.5856 18.6307 9.63197 20.251C10.685 21.2996 11.738 22.3489 12.8113 23.4185C13.8949 22.7493 15.1145 22.5296 16.4132 22.8708C17.4623 23.1466 18.3017 23.7363 18.9338 24.6158C20.184 26.3546 20.0119 28.7313 18.5215 30.3166C17.0953 31.8325 14.7124 32.1426 12.9216 31.0777C11.2201 30.065 9.99262 27.6298 11.2569 25.0684C10.1593 23.9903 9.05305 22.9028 7.93197 21.8013C6.81247 22.3606 5.63976 22.4845 4.42872 22.0957C3.4782 21.7911 2.71465 21.2264 2.13338 20.417C1.01388 18.859 1.02796 16.7151 2.17172 15.168C2.83591 14.2691 3.71603 13.6879 4.80815 13.4363C5.89871 13.1847 6.9439 13.3366 7.9132 13.8281C9.02958 12.7157 10.1287 11.6212 11.2326 10.5228C9.98323 8.00818 11.2263 5.53561 12.9842 4.52913C14.8477 3.46189 17.2823 3.86308 18.6647 5.48419C20.1159 7.1871 20.1386 9.59579 18.7194 11.3065C17.3872 12.9128 14.9134 13.5329 12.7926 12.2133C11.7356 13.2665 10.6818 14.3158 9.62414 15.369H9.62258ZM5.87994 14.6492C4.12518 14.6515 2.69196 16.0662 2.69509 17.8089C2.69822 19.5531 4.07277 20.9911 5.88228 20.9895C7.74343 20.988 9.0726 19.4845 9.06478 17.8065C9.05696 16.0616 7.63313 14.6469 5.87994 14.6492ZM12.0087 27.1811C12.0063 28.8887 13.3136 30.3415 15.127 30.3844C16.8779 30.4257 18.3439 29.0803 18.3784 27.2715C18.4128 25.4299 16.9397 24.0799 15.2647 24.0448C13.4966 24.0074 12.0572 25.3894 12.0087 27.1819V27.1811Z" fill="white"/>
<path d="M99.0033 24.9368V18.9283H103.129V34.7889H99.0417V32.8399C98.9087 32.8757 98.9032 32.9746 98.8703 33.0432C98.5597 33.6905 98.1013 34.2 97.4676 34.5482C96.7807 34.9253 96.0407 35.0242 95.2763 34.9315C93.8955 34.7632 92.8707 34.0458 92.1619 32.864C91.7371 32.1559 91.4875 31.387 91.3616 30.5761C91.1957 29.5096 91.1902 28.44 91.3201 27.3704C91.4515 26.29 91.7762 25.2765 92.4443 24.3993C93.3722 23.1809 94.6184 22.6232 96.1416 22.7564C97.4277 22.8693 98.3102 23.586 98.8578 24.7327C98.8915 24.8028 98.922 24.8737 98.954 24.9446C98.9705 24.9423 98.9877 24.9392 99.0041 24.9368H99.0033ZM95.4782 28.9806C95.4969 29.1699 95.5134 29.4995 95.565 29.8228C95.6409 30.2987 95.7934 30.7498 96.1103 31.1276C96.69 31.8186 97.7297 31.8583 98.3642 31.2172C98.6294 30.9484 98.7999 30.6236 98.9047 30.2676C99.1621 29.3927 99.1653 28.5094 98.9642 27.6236C98.8735 27.2217 98.7123 26.8501 98.4361 26.5377C97.8009 25.8194 96.6822 25.8475 96.0829 26.5938C95.9092 26.8103 95.7911 27.0557 95.7011 27.3167C95.5306 27.8114 95.493 28.3255 95.4782 28.9814V28.9806Z" fill="white"/>
<path d="M45.7292 7.3881H51.6679V10.8578C51.0131 10.8656 50.3567 10.8601 49.7011 10.8609C49.0408 10.8617 48.3805 10.8609 47.7203 10.8609H45.7222V17.0532H41.5728V1.19421H52.2984C52.3477 1.35469 52.3673 4.14665 52.3188 4.65456H45.7292V7.3881Z" fill="white"/>
<path d="M82.1176 34.7943H77.9932V22.8981H81.9118V25.1845C81.9869 25.1253 82.0276 25.1066 82.048 25.0747C82.0761 25.0287 82.0886 24.9734 82.109 24.9228C82.6104 23.713 83.5352 23.0251 84.8072 22.7953C85.5692 22.6574 86.3296 22.7057 87.0556 22.9971C88.1767 23.4458 88.8847 24.2855 89.2837 25.4019C89.4722 25.9292 89.5614 26.4777 89.5622 27.037C89.5661 29.5656 89.5637 32.0943 89.5637 34.623C89.5637 34.6759 89.5591 34.7297 89.5551 34.7943H85.4284V34.5341C85.4284 32.3966 85.4284 30.2597 85.4284 28.1221C85.4284 27.8472 85.4104 27.5761 85.3275 27.3104C85.1139 26.6319 84.5905 26.2323 83.8802 26.2128C82.9343 26.1871 82.2991 26.7145 82.1575 27.6532C82.1309 27.83 82.1184 28.0107 82.1184 28.1899C82.116 30.3034 82.1168 32.4176 82.1168 34.531V34.7943H82.1176Z" fill="white"/>
<path d="M76.3314 29.8095H68.8954C68.7569 30.4358 69.0605 31.4999 70.0102 31.852C70.8066 32.1473 72.1272 32.0164 72.5723 30.9351H76.3306C76.3134 31.031 76.3009 31.1143 76.2837 31.1969C75.966 32.6863 75.0945 33.7388 73.7262 34.3932C73.0315 34.7258 72.293 34.8925 71.5279 34.961C70.701 35.0351 69.8788 35.0117 69.0675 34.8263C66.9975 34.3542 65.6519 33.0938 65.08 31.0652C64.6255 29.4527 64.6309 27.823 65.2357 26.2447C65.9977 24.2559 67.4692 23.1014 69.5862 22.7828C70.6994 22.6153 71.7986 22.6901 72.8586 23.0835C74.403 23.6569 75.3965 24.7654 75.9387 26.2969C76.2211 27.0946 76.329 27.9212 76.3306 28.764C76.3306 29.1076 76.3306 29.4504 76.3306 29.8095H76.3314ZM72.5277 27.4421C72.5269 26.4839 71.7431 25.6581 70.5946 25.7228C69.3789 25.7914 68.7882 26.8196 68.8876 27.4421H72.5269H72.5277Z" fill="white"/>
<path d="M115.701 26.7293H111.916C111.73 26.0064 111.26 25.62 110.504 25.5678C110.147 25.5437 109.799 25.5904 109.472 25.7478C109.228 25.8654 109.061 26.0446 109.059 26.325C109.055 26.5992 109.2 26.8002 109.433 26.9358C109.702 27.0931 110.005 27.1445 110.306 27.2014C111.138 27.3588 111.973 27.5076 112.804 27.675C113.422 27.7997 114.015 28.0007 114.563 28.3193C115.253 28.7205 115.747 29.2837 115.911 30.0728C116.139 31.1704 115.94 32.1894 115.237 33.0852C114.642 33.8448 113.847 34.3169 112.944 34.6214C111.924 34.965 110.872 35.0437 109.804 34.979C109.08 34.9354 108.369 34.8232 107.682 34.5817C106.802 34.2717 106.055 33.7723 105.484 33.0299C105.054 32.4706 104.813 31.8326 104.713 31.1393C104.707 31.1003 104.704 31.0614 104.703 31.0224C104.703 30.9991 104.707 30.9765 104.711 30.9391H108.783C108.793 30.9741 108.804 31.0022 108.81 31.0318C108.899 31.4439 109.143 31.736 109.524 31.9082C110.094 32.1652 110.68 32.1715 111.269 31.9798C111.385 31.9417 111.499 31.8716 111.593 31.7921C111.88 31.5483 111.89 31.1307 111.601 30.8884C111.467 30.7763 111.298 30.6812 111.13 30.636C110.715 30.5239 110.291 30.4397 109.869 30.3533C109.162 30.2084 108.451 30.0837 107.747 29.9264C107.294 29.8251 106.867 29.6381 106.471 29.392C105.58 28.8365 105.078 28.0427 104.98 26.9942C104.937 26.5369 104.959 26.0866 105.062 25.6418C105.27 24.7483 105.795 24.0807 106.561 23.5907C107.179 23.1958 107.863 22.9706 108.58 22.8475C109.76 22.6442 110.942 22.6466 112.117 22.8888C112.984 23.0672 113.78 23.4045 114.452 23.9942C115.272 24.714 115.648 25.6372 115.702 26.7301L115.701 26.7293Z" fill="white"/>
<path d="M45.7246 22.3895H41.1355V18.9244H54.4225V22.3934H49.831V34.792H45.7254V22.3895H45.7246Z" fill="white"/>
<path d="M60.1179 1.18799H64.2275V17.0314C64.0749 17.0735 60.434 17.0875 60.1179 17.0431V1.18799Z" fill="white"/>
<path d="M56.0623 22.8927H60.0662C60.0662 23.2736 60.0662 23.6475 60.0662 24.0215C60.0662 24.393 60.0654 24.7639 60.0662 25.1253C60.2 25.1604 60.1976 25.077 60.2156 25.0248C60.2712 24.862 60.3072 24.6914 60.3776 24.5356C60.4894 24.2871 60.5974 24.03 60.7507 23.8072C61.3555 22.9277 62.2168 22.6286 63.2526 22.7641C63.4443 22.7891 63.632 22.842 63.8229 22.8825V26.54C63.3723 26.4083 62.9232 26.3616 62.4711 26.3374C61.2037 26.2712 60.2422 27.1406 60.1898 28.4065C60.1859 28.5 60.1875 28.5942 60.1875 28.6885C60.1875 30.6368 60.1875 32.5859 60.1875 34.5342V34.7943H56.063V22.8927H56.0623Z" fill="white"/>
<path d="M53.8936 5.16797H58.0062V17.0548H53.8936V5.16797Z" fill="white"/>
<path d="M19.9072 23.3811C20.7615 21.5559 21.615 19.7307 22.4763 17.8915C21.6213 16.0639 20.7631 14.2302 19.9001 12.387C20.0856 12.4268 29.0291 17.5409 29.5478 17.9001C26.3387 19.7455 23.1429 21.5832 19.9471 23.4209L19.908 23.3811H19.9072Z" fill="url(#paint0_linear_7_16979)"/>
<path d="M0.0256348 23.5595H1.98379V31.6199H10.1685V33.6819H0.0256348V23.5595Z" fill="white"/>
<path d="M29.6595 23.5541H31.5966V33.6796H21.4866V31.6316H29.6595V23.5541Z" fill="white"/>
<path d="M1.98169 4.00099V12.1237C1.79941 12.1751 0.611057 12.1915 0.0493473 12.1541C6.08058e-05 11.9796 -0.021062 2.64785 0.0274422 2.034H10.139V4.00099H1.98169Z" fill="white"/>
<path d="M57.9876 1.95997C58.0181 2.99527 57.077 3.87867 56.0795 3.90983C55.5655 3.92619 55.1008 3.80856 54.6932 3.48916C53.6567 2.679 53.6481 1.25887 54.676 0.437795C55.8354 -0.488445 57.6324 0.130087 57.9438 1.56502C57.972 1.69355 57.9735 1.82832 57.9876 1.95997Z" fill="url(#paint1_linear_7_16979)"/>
</g>
<defs>
<linearGradient id="paint0_linear_7_16979" x1="24.724" y1="12.387" x2="24.724" y2="23.4209" gradientUnits="userSpaceOnUse">
<stop stop-color="#00FF21"/>
<stop offset="1" stop-color="#25FFCA"/>
</linearGradient>
<linearGradient id="paint1_linear_7_16979" x1="55.9494" y1="-0.000793457" x2="55.9494" y2="3.91131" gradientUnits="userSpaceOnUse">
<stop stop-color="#00FF21"/>
<stop offset="1" stop-color="#25FFCA"/>
</linearGradient>
<clipPath id="clip0_7_16979">
<rect width="116" height="35" fill="white"/>
</clipPath>
</defs>
</svg>
