<svg width="55" height="15" viewBox="0 0 55 15" fill="none" xmlns="http://www.w3.org/2000/svg">
<path opacity="0.2" d="M54.7815 10.756C51.0633 10.8339 47.0653 10.1628 43.9072 8.0865C43.19 7.61481 42.5204 7.04315 41.9037 6.41504C41.9603 6.28807 42.0174 6.16295 42.0679 6.02739C42.6136 4.5608 42.8429 1.37428 41.3327 0.320487C39.9802 -0.622894 38.7047 0.679309 38.7348 2.1134C38.7691 3.7407 39.8888 5.32384 41.3153 6.64813C40.7762 7.66451 39.9477 8.50608 38.881 8.96427C37.4448 9.58072 35.8932 9.46049 34.4366 8.91581C34.4311 8.85325 34.4312 8.79436 34.4245 8.72995C34.1634 6.26661 33.2092 3.28925 31.2057 1.75825C29.663 0.579944 28.0464 2.28944 28.5644 3.94434C29.3297 6.3899 31.5649 8.33924 34.0353 9.20717C34.1393 10.4487 34.0166 11.6993 33.4787 12.8181C31.9734 15.9519 26.6824 14.3117 24.2818 13.5125C20.5744 12.2784 17.2605 9.88127 15.4941 6.44756C17.0265 4.91042 17.8658 2.57405 16.4549 0.901355C15.9766 0.33459 14.7288 0.42415 14.3305 1.04367C13.3624 2.55136 14.1433 4.77303 14.8262 6.23901C14.8539 6.2979 14.887 6.35248 14.9153 6.41014C14.0206 7.13577 12.8702 7.55164 11.7373 7.60009C11.6814 7.60255 11.6248 7.59888 11.5695 7.59888C11.1808 6.54631 10.6321 5.55938 10.0665 4.79266C9.63213 4.20442 4.93261 -0.598972 4.35743 2.22811C3.70343 5.44161 8.43604 7.60563 11.3529 7.97795C11.8204 9.35438 11.8739 10.8302 11.1633 12.1974C8.87886 16.5917 2.88637 13.0426 0.393117 10.8222C0.174716 10.6284 -0.145951 10.9522 0.0736528 11.1479C2.54345 13.3463 6.22557 15.5612 9.55152 14.251C12.3558 13.1451 12.5026 10.4578 11.7145 8.01536C11.9509 8.03437 12.1729 8.04113 12.3727 8.03254C13.2986 7.99328 14.2817 7.51301 15.1174 6.79535C17.5866 11.4454 22.8439 14.0357 27.8099 14.8564C32.1442 15.5728 34.6766 13.5885 34.4685 9.34578C37.2144 10.161 40.1541 9.61752 41.6456 6.93765C43.0156 8.13558 44.5991 9.09615 45.7681 9.63776C48.478 10.894 51.8226 11.2773 54.7839 11.2148C55.0721 11.2105 55.0727 10.7504 54.7815 10.756ZM5.03068 3.70512C3.21248 0.825295 7.11482 2.58141 7.38376 2.7642C8.42582 3.47265 9.2892 4.50191 10.034 5.51154C10.5033 6.14762 10.9119 6.85362 11.2079 7.59397C8.82411 7.44247 6.26407 5.65813 5.03068 3.70512ZM14.4297 3.49719C13.9562 1.96435 14.6975 1.66072 16.6529 2.58816C16.6667 3.11505 16.5909 3.62661 16.4254 4.12161C16.2233 4.88466 15.822 5.53546 15.2985 6.06235C14.9225 5.25944 14.6259 4.40561 14.4297 3.49719ZM29.6745 5.26128C29.2479 4.662 28.9988 3.98299 28.9266 3.22301C30.4253 1.59325 31.5877 1.78585 32.4132 3.80081C32.9306 4.61477 33.214 5.61152 33.4986 6.52853C33.7158 7.23024 33.8885 7.97489 33.9877 8.72873C32.2513 7.9663 30.6876 6.63218 29.6745 5.26128ZM40.1745 4.35838C39.7979 3.81492 39.5037 3.22607 39.2913 2.59245C40.0121 2.12383 40.7335 1.65521 41.4543 1.18658C41.6462 1.55277 41.7816 1.9392 41.8598 2.34464C42.1672 3.57202 42.0481 4.90245 41.5782 6.07217C41.0722 5.52442 40.6017 4.946 40.1745 4.35838Z" fill="white"/>
</svg>
