<svg width="55" height="15" viewBox="0 0 55 15" fill="none" xmlns="http://www.w3.org/2000/svg">
<path opacity="0.2" d="M0.218479 10.756C3.93671 10.8339 7.93471 10.1628 11.0928 8.0865C11.81 7.61481 12.4796 7.04315 13.0963 6.41504C13.0397 6.28807 12.9826 6.16295 12.9321 6.02739C12.3864 4.5608 12.1571 1.37428 13.6673 0.320487C15.0198 -0.622894 16.2953 0.679309 16.2652 2.1134C16.2309 3.7407 15.1112 5.32384 13.6847 6.64813C14.2238 7.66451 15.0523 8.50608 16.119 8.96427C17.5552 9.58072 19.1068 9.46049 20.5634 8.91581C20.5689 8.85325 20.5688 8.79436 20.5755 8.72995C20.8366 6.26661 21.7908 3.28925 23.7943 1.75825C25.337 0.579944 26.9536 2.28944 26.4356 3.94434C25.6703 6.3899 23.4351 8.33924 20.9647 9.20717C20.8607 10.4487 20.9834 11.6993 21.5213 12.8181C23.0266 15.9519 28.3176 14.3117 30.7182 13.5125C34.4256 12.2784 37.7395 9.88127 39.5059 6.44756C37.9735 4.91042 37.1342 2.57405 38.5451 0.901355C39.0234 0.33459 40.2712 0.42415 40.6695 1.04367C41.6376 2.55136 40.8567 4.77303 40.1738 6.23901C40.1461 6.2979 40.113 6.35248 40.0847 6.41014C40.9794 7.13577 42.1298 7.55164 43.2627 7.60009C43.3186 7.60255 43.3752 7.59888 43.4305 7.59888C43.8192 6.54631 44.3679 5.55938 44.9335 4.79266C45.3679 4.20442 50.0674 -0.598972 50.6426 2.22811C51.2966 5.44161 46.564 7.60563 43.6471 7.97795C43.1796 9.35438 43.1261 10.8302 43.8367 12.1974C46.1211 16.5917 52.1136 13.0426 54.6069 10.8222C54.8253 10.6284 55.146 10.9522 54.9263 11.1479C52.4566 13.3463 48.7744 15.5612 45.4485 14.251C42.6442 13.1451 42.4974 10.4578 43.2855 8.01536C43.0491 8.03437 42.8271 8.04113 42.6273 8.03254C41.7014 7.99328 40.7183 7.51301 39.8826 6.79535C37.4134 11.4454 32.1561 14.0357 27.1901 14.8564C22.8558 15.5728 20.3234 13.5885 20.5315 9.34578C17.7856 10.161 14.8459 9.61752 13.3544 6.93765C11.9844 8.13558 10.4009 9.09615 9.23186 9.63776C6.52201 10.894 3.17742 11.2773 0.216076 11.2148C-0.0721169 11.2105 -0.0727196 10.7504 0.218479 10.756ZM49.9693 3.70512C51.7875 0.825295 47.8852 2.58141 47.6162 2.7642C46.5742 3.47265 45.7108 4.50191 44.966 5.51154C44.4967 6.14762 44.0881 6.85362 43.7921 7.59397C46.1759 7.44247 48.7359 5.65813 49.9693 3.70512ZM40.5703 3.49719C41.0438 1.96435 40.3025 1.66072 38.3471 2.58816C38.3333 3.11505 38.4091 3.62661 38.5746 4.12161C38.7767 4.88466 39.178 5.53546 39.7015 6.06235C40.0775 5.25944 40.3741 4.40561 40.5703 3.49719ZM25.3255 5.26128C25.7521 4.662 26.0012 3.98299 26.0734 3.22301C24.5747 1.59325 23.4123 1.78585 22.5868 3.80081C22.0694 4.61477 21.786 5.61152 21.5014 6.52853C21.2842 7.23024 21.1115 7.97489 21.0123 8.72873C22.7487 7.9663 24.3124 6.63218 25.3255 5.26128ZM14.8255 4.35838C15.2021 3.81492 15.4963 3.22607 15.7087 2.59245C14.9879 2.12383 14.2665 1.65521 13.5457 1.18658C13.3538 1.55277 13.2184 1.9392 13.1402 2.34464C12.8328 3.57202 12.9519 4.90245 13.4218 6.07217C13.9278 5.52442 14.3983 4.946 14.8255 4.35838Z" fill="white"/>
</svg>
