<svg width="388" height="403" viewBox="0 0 388 403" fill="none" xmlns="http://www.w3.org/2000/svg">
<g filter="url(#filter0_di_56_353)">
<path d="M158 151.4V155H230V151.4C229.44 102.76 158.56 102.76 158 151.4Z" fill="white"/>
<path d="M361.8 66.36C294.28 67.04 229.32 25.32 204.48 7.31999C201.43 5.11647 197.763 3.93042 194 3.93042C190.237 3.93042 186.57 5.11647 183.52 7.31999C158.68 25.32 93.5599 66.88 26.1999 66.36C23.8076 66.3362 21.4343 66.7859 19.2166 67.6831C16.9989 68.5804 14.9805 69.9074 13.2777 71.5879C11.575 73.2683 10.2214 75.269 9.29501 77.4748C8.36862 79.6805 7.88768 82.0476 7.87988 84.44C7.91988 176.8 26.3999 308.92 185.88 389.64C188.395 390.922 191.177 391.59 194 391.59C196.823 391.59 199.605 390.922 202.12 389.64C361.6 308.92 380.08 176.8 380.12 84.44C380.084 79.6143 378.135 75.0002 374.7 71.6104C371.265 68.2206 366.626 66.3323 361.8 66.36ZM260 249C260 256.956 256.839 264.587 251.213 270.213C245.587 275.839 237.956 279 230 279H158C150.043 279 142.413 275.839 136.787 270.213C131.161 264.587 128 256.956 128 249V185C128.003 179.165 129.707 173.458 132.904 168.577C136.101 163.696 140.652 159.854 146 157.52V151.32C146.72 87.12 241.28 87.12 242 151.32V157.52C247.347 159.854 251.898 163.696 255.095 168.577C258.293 173.458 259.997 179.165 260 185V249Z" fill="white"/>
<path d="M203.824 210.112C203.735 209.575 203.76 209.025 203.898 208.499C204.036 207.972 204.283 207.481 204.624 207.056C205.964 205.118 206.748 202.851 206.892 200.5C207.036 198.149 206.533 195.803 205.439 193.716C204.346 191.63 202.702 189.883 200.686 188.664C198.67 187.444 196.36 186.8 194.004 186.8C191.648 186.8 189.337 187.444 187.322 188.664C185.306 189.883 183.662 191.63 182.568 193.716C181.474 195.803 180.972 198.149 181.116 200.5C181.26 202.851 182.044 205.118 183.384 207.056C183.723 207.476 183.969 207.963 184.107 208.485C184.245 209.006 184.271 209.551 184.184 210.084C183.244 214.768 180.584 228.16 178.708 237.456C178.48 238.615 178.511 239.811 178.8 240.957C179.09 242.103 179.629 243.17 180.38 244.083C181.13 244.995 182.074 245.73 183.143 246.234C184.211 246.739 185.378 247 186.56 247H201.44C202.624 247 203.793 246.738 204.863 246.232C205.933 245.726 206.878 244.989 207.628 244.074C208.379 243.158 208.918 242.088 209.204 240.939C209.491 239.791 209.52 238.593 209.288 237.432L203.824 210.112Z" fill="white"/>
</g>
<defs>
<filter id="filter0_di_56_353" x="0.879883" y="0.93042" width="386.24" height="401.66" filterUnits="userSpaceOnUse" color-interpolation-filters="sRGB">
<feFlood flood-opacity="0" result="BackgroundImageFix"/>
<feColorMatrix in="SourceAlpha" type="matrix" values="0 0 0 0 0 0 0 0 0 0 0 0 0 0 0 0 0 0 127 0" result="hardAlpha"/>
<feOffset dy="4"/>
<feGaussianBlur stdDeviation="3.5"/>
<feComposite in2="hardAlpha" operator="out"/>
<feColorMatrix type="matrix" values="0 0 0 0 0 0 0 0 0 0 0 0 0 0 0 0 0 0 0.26 0"/>
<feBlend mode="normal" in2="BackgroundImageFix" result="effect1_dropShadow_56_353"/>
<feBlend mode="normal" in="SourceGraphic" in2="effect1_dropShadow_56_353" result="shape"/>
<feColorMatrix in="SourceAlpha" type="matrix" values="0 0 0 0 0 0 0 0 0 0 0 0 0 0 0 0 0 0 127 0" result="hardAlpha"/>
<feOffset/>
<feGaussianBlur stdDeviation="5"/>
<feComposite in2="hardAlpha" operator="arithmetic" k2="-1" k3="1"/>
<feColorMatrix type="matrix" values="0 0 0 0 0 0 0 0 0 0 0 0 0 0 0 0 0 0 0.2 0"/>
<feBlend mode="normal" in2="shape" result="effect2_innerShadow_56_353"/>
</filter>
</defs>
</svg>
