<svg width="26" height="26" viewBox="0 0 26 26" fill="none" xmlns="http://www.w3.org/2000/svg">
<path d="M12.6313 8.49542C12.6313 8.49461 12.6313 8.49421 12.6313 8.4934C12.6333 8.49461 12.6354 8.49582 12.637 8.49703C12.6354 8.49663 12.6333 8.49582 12.6313 8.49542ZM11.1331 8.69098C11.1319 8.68452 11.1307 8.67845 11.1294 8.67199C11.1355 8.67522 11.142 8.67845 11.148 8.68169C11.1428 8.68411 11.1383 8.68815 11.1331 8.69098ZM9.17017 8.12288C9.15441 8.13419 9.13744 8.14187 9.12168 8.15278C9.31199 8.00812 9.47766 7.83761 9.61827 7.65013C9.51039 7.83398 9.35846 7.98954 9.17017 8.12288ZM8.30266 7.98913C8.42024 7.90226 8.53378 7.80812 8.64571 7.71074C8.54227 7.81701 8.42953 7.91236 8.30266 7.98913ZM18.5273 9.09948C18.24 9.10716 17.9536 9.10959 17.6671 9.10999C17.6433 9.08373 17.6085 9.06514 17.5616 9.06029C17.0388 9.00614 16.522 9.02352 16.0044 9.04413C15.9777 9.01019 15.9365 8.98635 15.8763 8.98675C15.8028 8.98715 15.7292 8.98796 15.6561 8.98837C15.6541 8.98837 15.6529 8.98715 15.6508 8.98715C14.1736 8.91523 12.6713 8.12247 11.7384 6.97576C10.7593 5.77288 10.5015 4.17079 10.346 2.65517C10.3266 1.85392 10.3092 1.05268 10.2692 0.251839C10.2567 0.0110207 9.90878 0.011425 9.89545 0.251839C9.81302 1.69917 9.76817 3.15216 9.76535 4.60232C9.6615 4.9389 9.55766 5.27549 9.46352 5.61489C9.37503 5.9345 9.28209 6.24926 9.10633 6.53291C8.93177 6.81454 8.70065 7.05697 8.45741 7.28001C7.5798 8.08328 6.42056 8.61986 5.23869 8.76735C4.8908 8.77745 4.54169 8.79078 4.19299 8.79886C3.00628 8.76573 1.80744 8.85503 0.648198 8.98109C0.453846 9.0017 0.447381 9.27484 0.648198 9.28777C1.565 9.34838 2.47494 9.35162 3.39336 9.33667C4.23138 9.32374 5.08717 9.14514 5.91266 9.35808C7.03796 9.6494 8.03477 10.2474 8.8045 11.0919C8.92531 11.2523 9.03562 11.4192 9.13219 11.5945C9.53907 12.336 9.64615 13.1857 9.72615 14.0156C9.73585 14.1126 9.7411 14.21 9.74878 14.307C9.75039 14.3627 9.75241 14.4189 9.75403 14.4734C9.75484 14.5038 9.7605 14.5312 9.76817 14.5563C9.79363 14.93 9.81262 15.3038 9.82797 15.6775C9.82232 16.1353 9.81626 16.5923 9.80696 17.0497C9.80696 17.0554 9.80898 17.059 9.80939 17.0639C9.78474 17.5827 9.78191 18.1015 9.84414 18.6122C9.87363 18.8571 10.2118 18.8659 10.2316 18.6122C10.2724 18.0922 10.2765 17.5697 10.2813 17.0473C10.312 17.0125 10.3355 16.9685 10.3411 16.9099C10.3953 16.3301 10.3924 15.7466 10.3617 15.1636C10.4086 14.6019 10.4668 14.0411 10.5032 13.4783C10.8543 12.1538 11.548 10.9161 12.715 10.1577C13.0968 9.90921 13.5114 9.7286 13.9542 9.62152C14.2249 9.55647 14.5005 9.54556 14.7753 9.50758C15.0108 9.47485 15.2431 9.4292 15.4803 9.41303C15.5628 9.40697 15.6448 9.40414 15.7268 9.40253C15.9062 9.41344 16.0856 9.42596 16.2658 9.4296C16.3745 9.43162 16.4828 9.43162 16.5907 9.42919C17.2477 9.47 17.901 9.52092 18.5605 9.34636C18.6962 9.3104 18.6708 9.09544 18.5273 9.09948Z" fill="#F9FEFD"/>
<path d="M21.6164 17.2279C21.6164 17.2275 21.6164 17.2271 21.6164 17.2267C21.6181 17.2275 21.6193 17.2283 21.6205 17.2291C21.6193 17.2287 21.6177 17.2283 21.6164 17.2279ZM20.553 17.3665C20.5522 17.362 20.5513 17.358 20.5505 17.3535C20.555 17.3556 20.5594 17.358 20.5639 17.36C20.5602 17.3616 20.557 17.3644 20.553 17.3665ZM19.1602 16.9636C19.1489 16.9713 19.1371 16.9769 19.1254 16.985C19.2608 16.882 19.3784 16.7612 19.4782 16.6278C19.4014 16.7584 19.2935 16.8695 19.1602 16.9636ZM18.5444 16.8691C18.628 16.8068 18.7088 16.7402 18.7876 16.6711C18.7145 16.7462 18.6345 16.8141 18.5444 16.8691ZM25.8005 17.6566C25.5968 17.6618 25.3936 17.6638 25.1903 17.6638C25.1734 17.6453 25.1487 17.6319 25.1152 17.6287C24.7447 17.5907 24.3774 17.6028 24.0105 17.617C23.9915 17.5935 23.962 17.5766 23.9196 17.577C23.8674 17.577 23.8153 17.5774 23.7628 17.5778C23.7616 17.5774 23.7608 17.577 23.7596 17.577C22.711 17.5265 21.6447 16.9632 20.9825 16.1494C20.2879 15.2957 20.1049 14.159 19.995 13.083C19.9808 12.5145 19.9687 11.946 19.94 11.3775C19.9311 11.207 19.6846 11.207 19.675 11.3775C19.6164 12.405 19.5844 13.4354 19.5828 14.4649C19.5085 14.7037 19.4349 14.9425 19.3683 15.1837C19.3056 15.4104 19.2394 15.6339 19.1145 15.8351C18.9909 16.0351 18.8268 16.2072 18.6543 16.3652C18.0316 16.9353 17.209 17.3164 16.3698 17.421C16.1229 17.4279 15.8752 17.4376 15.6279 17.4432C14.7859 17.4198 13.9349 17.4832 13.1118 17.5725C12.9741 17.5875 12.9696 17.781 13.1118 17.7907C13.7628 17.8331 14.4085 17.8352 15.0606 17.8251C15.655 17.8158 16.2623 17.6889 16.8482 17.8404C17.647 18.0469 18.3545 18.4712 18.9008 19.0708C18.9864 19.1843 19.0648 19.3027 19.1331 19.4276C19.422 19.9532 19.498 20.5569 19.5549 21.1456C19.5614 21.2143 19.5654 21.2834 19.5707 21.3525C19.5719 21.3921 19.5731 21.4317 19.5743 21.4705C19.5751 21.4919 19.5792 21.5113 19.5844 21.5295C19.6026 21.7945 19.616 22.0596 19.6269 22.3246C19.6232 22.6495 19.6188 22.9744 19.6119 23.2988C19.6119 23.3025 19.6135 23.3053 19.6139 23.3089C19.5962 23.6766 19.5941 24.0451 19.6386 24.408C19.6596 24.5813 19.8992 24.5878 19.9133 24.408C19.9424 24.0391 19.9453 23.6681 19.9485 23.2972C19.9703 23.2722 19.9873 23.241 19.9909 23.1998C20.0297 22.7881 20.0277 22.3739 20.0055 21.9602C20.039 21.5618 20.0806 21.1634 20.1061 20.7642C20.3554 19.8243 20.8475 18.9455 21.6758 18.4073C21.947 18.2315 22.2411 18.1031 22.5551 18.0275C22.7474 17.981 22.943 17.9734 23.1381 17.9463C23.305 17.9228 23.4699 17.8905 23.6383 17.8792C23.6969 17.8752 23.7551 17.8731 23.8133 17.8715C23.9406 17.8796 24.0679 17.8885 24.1959 17.8909C24.2731 17.8925 24.3495 17.8921 24.4263 17.8905C24.8925 17.9192 25.3564 17.9556 25.8243 17.8315C25.9205 17.8061 25.9023 17.6537 25.8005 17.6566Z" fill="#F9FEFD"/>
<path d="M7.00236 20.4875C7.00236 20.4871 7.00236 20.4871 7.00236 20.4867C7.00317 20.4871 7.00438 20.4875 7.00559 20.4883C7.00438 20.4879 7.00317 20.4875 7.00236 20.4875ZM6.21081 20.5905C6.21 20.5873 6.2096 20.584 6.20879 20.5808C6.21202 20.5824 6.21525 20.584 6.21849 20.5856C6.21566 20.5873 6.21363 20.5889 6.21081 20.5905ZM5.17359 20.2903C5.16511 20.2963 5.15622 20.3008 5.14773 20.306C5.24875 20.2301 5.33602 20.14 5.41037 20.0406C5.353 20.1375 5.27299 20.22 5.17359 20.2903ZM4.71499 20.22C4.77721 20.1739 4.83742 20.1242 4.89641 20.0729C4.84186 20.1287 4.78206 20.1792 4.71499 20.22ZM10.1176 20.8067C9.96571 20.8103 9.8146 20.8119 9.66307 20.8119C9.65055 20.7982 9.63196 20.7885 9.60731 20.7857C9.33134 20.757 9.0578 20.7663 8.78465 20.7772C8.77051 20.759 8.74869 20.7469 8.71677 20.7469C8.67798 20.7473 8.63919 20.7477 8.6004 20.7477C8.59959 20.7477 8.59879 20.7473 8.59758 20.7473C7.81734 20.7093 7.02337 20.2899 6.53042 19.6842C6.01322 19.049 5.87706 18.2021 5.79503 17.4017C5.78453 16.9782 5.77524 16.5548 5.75422 16.1313C5.74776 16.0044 5.56391 16.0049 5.55664 16.1313C5.513 16.8966 5.48956 17.6639 5.48795 18.4304C5.433 18.6078 5.37805 18.786 5.32835 18.9654C5.28188 19.1343 5.23258 19.3003 5.13965 19.4502C5.04752 19.5993 4.9255 19.7274 4.79661 19.845C4.33315 20.2693 3.7206 20.5533 3.09593 20.6313C2.91208 20.6366 2.72783 20.6434 2.54358 20.6479C1.91649 20.6301 1.28333 20.6774 0.670778 20.7436C0.567743 20.7549 0.564511 20.8992 0.670778 20.9065C1.15524 20.938 1.63567 20.9396 2.12094 20.9319C2.56379 20.9251 3.01633 20.8305 3.45231 20.9432C4.04708 21.0968 4.57357 21.4132 4.98045 21.8592C5.04389 21.9441 5.10248 22.0322 5.15339 22.1247C5.36835 22.5166 5.42491 22.9655 5.46734 23.4039C5.47219 23.4553 5.47502 23.5066 5.47906 23.5579C5.48027 23.5874 5.48108 23.6173 5.48189 23.646C5.48229 23.6621 5.48552 23.6763 5.48957 23.6896C5.5029 23.8876 5.513 24.0848 5.52108 24.2824C5.51825 24.524 5.51502 24.7656 5.51017 25.0072C5.50977 25.0101 5.51098 25.0121 5.51098 25.0149C5.49805 25.2885 5.49684 25.5628 5.52957 25.8331C5.54532 25.962 5.72392 25.9669 5.73443 25.8331C5.75584 25.558 5.75786 25.2824 5.76069 25.006C5.77685 24.9874 5.78937 24.9644 5.7922 24.9333C5.82089 24.627 5.81928 24.3187 5.80311 24.0104C5.82776 23.7139 5.85847 23.4173 5.87786 23.1203C6.06333 22.4205 6.42981 21.7663 7.0464 21.3655C7.24843 21.2342 7.46742 21.1388 7.70097 21.0826C7.84441 21.0479 7.98987 21.0422 8.13533 21.022C8.25938 21.0051 8.38221 20.9808 8.50747 20.9723C8.55111 20.9691 8.59475 20.9675 8.63798 20.9667C8.73293 20.9727 8.82748 20.9792 8.92284 20.9808C8.98021 20.982 9.03719 20.982 9.09416 20.9808C9.44165 21.0022 9.78671 21.0289 10.135 20.9368C10.2069 20.9178 10.1932 20.8042 10.1176 20.8067Z" fill="#F9FEFD"/>
</svg>
