<svg width="473" height="224" viewBox="0 0 473 224" fill="none" xmlns="http://www.w3.org/2000/svg">
<g clip-path="url(#clip0_16_23)">
<path d="M-0.979519 52.493C-1.58498 53.7041 -0.374051 54.9152 0.836878 54.3097C1.0387 54.1078 1.24053 53.9059 1.44235 53.7041C2.04781 52.493 0.836881 51.2819 -0.374048 51.8874C-0.777691 52.0893 -0.979519 52.2911 -0.979519 52.493Z" fill="white"/>
<path d="M401.554 67.8806C400.948 69.0918 402.159 70.303 403.37 69.6974C403.572 69.4956 403.774 69.2937 403.976 69.0918C404.581 67.8806 403.37 66.6694 402.159 67.275C401.957 67.4769 401.756 67.6788 401.554 67.8806Z" fill="white"/>
<path d="M300.92 73.1484C300.314 74.3593 301.525 75.5703 302.736 74.9648C302.938 74.763 303.14 74.5612 303.342 74.3593C303.947 73.1484 302.736 71.9374 301.525 72.5429C301.323 72.7447 301.122 72.9465 300.92 73.1484Z" fill="white"/>
<path d="M200.704 63.583C200.099 64.7942 201.309 66.0053 202.52 65.3997C202.722 65.1979 202.924 64.996 203.126 64.7942C203.731 63.583 202.52 62.3719 201.309 62.9775C200.906 62.9775 200.704 63.3812 200.704 63.583Z" fill="white"/>
<path d="M168.54 97.6903C169.006 97.224 168.943 96.4049 168.399 95.8608C167.855 95.3167 167.036 95.2537 166.57 95.7201C166.104 96.1864 166.167 97.0055 166.711 97.5496C167.255 98.0937 168.074 98.1567 168.54 97.6903Z" fill="white"/>
<path d="M136.108 161.87C135.503 163.081 136.714 164.292 137.925 163.687C138.127 163.485 138.328 163.283 138.53 163.081C139.136 161.87 137.925 160.659 136.714 161.264C136.512 161.466 136.31 161.668 136.108 161.87Z" fill="white"/>
<path d="M141.098 182.525C140.493 183.736 141.704 184.947 142.915 184.342C143.117 184.14 143.319 183.938 143.52 183.736C144.126 182.525 142.915 181.314 141.704 181.92C141.3 181.92 141.098 182.121 141.098 182.525Z" fill="white"/>
<path d="M424.981 194.032C424.376 195.243 425.587 196.454 426.798 195.848C427 195.646 427.201 195.444 427.403 195.243C428.009 194.031 426.798 192.82 425.587 193.426C425.183 193.426 424.981 193.628 424.981 194.032Z" fill="white"/>
<path d="M296.347 204.151C295.741 205.362 296.952 206.574 298.163 205.968C298.365 205.766 298.567 205.564 298.769 205.362C299.374 204.151 298.163 202.94 296.952 203.546C296.549 203.748 296.347 203.949 296.347 204.151Z" fill="white"/>
<path d="M286.366 159.79C285.761 161.001 286.972 162.213 288.182 161.607C288.384 161.405 288.586 161.203 288.788 161.002C289.393 159.79 288.182 158.579 286.972 159.185C286.77 159.387 286.568 159.589 286.366 159.79Z" fill="white"/>
<path d="M446.188 153.552C445.583 154.763 446.794 155.975 448.005 155.369C448.207 155.167 448.408 154.965 448.61 154.763C449.216 153.552 448.005 152.341 446.794 152.947C446.39 153.149 446.188 153.351 446.188 153.552Z" fill="white"/>
<path d="M69.8544 186.546C69.2489 187.757 70.4599 188.968 71.6708 188.362C71.8726 188.161 72.0744 187.959 72.2763 187.757C72.8817 186.546 71.6708 185.335 70.4599 185.94C70.0562 186.142 69.8544 186.344 69.8544 186.546Z" fill="white"/>
<path d="M2.20987 27.2628C1.60441 28.4739 2.81534 29.685 4.02628 29.0795C4.2281 28.8776 4.42992 28.6757 4.63174 28.4739C5.23721 27.2628 4.02628 26.0517 2.81535 26.6573C2.61353 26.8591 2.20987 27.061 2.20987 27.2628Z" fill="white"/>
<path d="M167.297 35.1645C166.691 36.3756 167.902 37.5867 169.113 36.9812C169.315 36.7793 169.517 36.5774 169.719 36.3756C170.324 35.1645 169.113 33.9533 167.902 34.5589C167.7 34.5589 167.499 34.7608 167.297 35.1645Z" fill="white"/>
<path d="M386.444 29.758C385.839 30.9692 387.05 32.1804 388.261 31.5748C388.463 31.3729 388.664 31.1711 388.866 30.9692C389.472 29.758 388.261 28.5469 387.05 29.1524C386.646 29.3543 386.444 29.5562 386.444 29.758Z" fill="white"/>
<path d="M88.8418 45.8388C88.2364 47.0499 89.4473 48.261 90.6582 47.6554C90.86 47.4536 91.0619 47.2517 91.2637 47.0499C91.8692 45.8388 90.6582 44.6277 89.4473 45.2332C89.0437 45.2332 88.8418 45.6369 88.8418 45.8388Z" fill="white"/>
<path d="M76.2286 61.5039C75.6231 62.7149 76.8341 63.926 78.045 63.3205C78.2468 63.1186 78.4487 62.9168 78.6505 62.7149C79.2559 61.5038 78.045 60.2928 76.8341 60.8983C76.4304 61.1002 76.2286 61.302 76.2286 61.5039Z" fill="white"/>
<path d="M117.534 14.0933C116.929 15.3044 118.14 16.5154 119.35 15.9099C119.552 15.7081 119.754 15.5062 119.956 15.3044C120.561 14.0934 119.35 12.8823 118.14 13.4878C117.938 13.4878 117.534 13.6897 117.534 14.0933Z" fill="white"/>
<path d="M174.228 41.9575C173.623 43.1687 174.834 44.3798 176.045 43.7742C176.247 43.5723 176.448 43.3705 176.65 43.1687C177.256 41.9576 176.045 40.7464 174.834 41.352C174.43 41.5538 174.228 41.7557 174.228 41.9575Z" fill="white"/>
<path d="M115.318 147.314C114.713 148.525 115.924 149.736 117.135 149.131C117.337 148.929 117.538 148.727 117.74 148.525C118.346 147.314 117.135 146.103 115.924 146.709C115.722 146.91 115.318 147.112 115.318 147.314Z" fill="white"/>
<path d="M181.158 83.8227C180.553 85.0338 181.764 86.2449 182.975 85.6393C183.176 85.4375 183.378 85.2356 183.58 85.0338C184.185 83.8227 182.974 82.6116 181.764 83.2171C181.562 83.419 181.36 83.6208 181.158 83.8227Z" fill="white"/>
<path d="M142.192 82.2366C142.659 81.7702 142.596 80.9511 142.052 80.407C141.508 79.863 140.688 79.7999 140.222 80.2663C139.756 80.7326 139.819 81.5518 140.363 82.0958C140.907 82.6399 141.726 82.7029 142.192 82.2366Z" fill="white"/>
<path d="M346.11 26.5696C345.505 27.7807 346.716 28.9918 347.927 28.3863C348.128 28.1844 348.33 27.9826 348.532 27.7807C349.137 26.5696 347.927 25.3585 346.716 25.964C346.514 25.964 346.312 26.1659 346.11 26.5696Z" fill="white"/>
<path d="M390.466 21.9951C389.86 23.2063 391.071 24.4173 392.282 23.8118C392.484 23.6099 392.686 23.4081 392.887 23.2062C393.493 21.9951 392.282 20.784 391.071 21.3896C390.869 21.5914 390.667 21.7933 390.466 21.9951Z" fill="white"/>
<path d="M379.93 212.746C379.324 213.957 380.535 215.168 381.746 214.563C381.948 214.361 382.15 214.159 382.352 213.957C382.957 212.746 381.746 211.535 380.535 212.141C380.132 212.141 379.93 212.343 379.93 212.746Z" fill="white"/>
<path d="M358.862 159.929C358.257 161.14 359.468 162.351 360.679 161.746C360.88 161.544 361.082 161.342 361.284 161.14C361.889 159.929 360.679 158.718 359.468 159.323C359.064 159.525 358.862 159.727 358.862 159.929Z" fill="white"/>
<path d="M356.92 118.896C356.314 120.107 357.525 121.318 358.736 120.712C358.938 120.51 359.14 120.309 359.342 120.107C359.947 118.896 358.736 117.685 357.525 118.29C357.324 118.492 357.122 118.694 356.92 118.896Z" fill="white"/>
<path d="M330.444 147.869C329.839 149.08 331.05 150.291 332.261 149.685C332.463 149.483 332.664 149.282 332.866 149.08C333.472 147.869 332.261 146.658 331.05 147.263C330.848 147.263 330.646 147.465 330.444 147.869Z" fill="white"/>
<path d="M433.713 130.817C433.107 132.029 434.318 133.24 435.529 132.634C435.731 132.432 435.933 132.23 436.135 132.029C436.74 130.817 435.529 129.606 434.318 130.212C434.116 130.414 433.914 130.616 433.713 130.817Z" fill="white"/>
<path d="M408.486 138.58C407.881 139.792 409.092 141.003 410.303 140.397C410.504 140.195 410.706 139.993 410.908 139.792C411.514 138.58 410.303 137.369 409.092 137.975C408.688 138.177 408.486 138.379 408.486 138.58Z" fill="white"/>
<path d="M312.978 92.6949C312.373 93.906 313.584 95.1172 314.795 94.5116C314.997 94.3097 315.198 94.1079 315.4 93.906C316.006 92.6949 314.795 91.4837 313.584 92.0893C313.382 92.0893 313.18 92.2912 312.978 92.6949Z" fill="white"/>
<path d="M242.565 122.5C241.96 123.711 243.171 124.922 244.382 124.316C244.584 124.115 244.785 123.913 244.987 123.711C245.593 122.5 244.382 121.289 243.171 121.894C242.969 122.096 242.767 122.298 242.565 122.5Z" fill="white"/>
<path d="M240.346 112.934C239.741 114.146 240.952 115.357 242.163 114.751C242.365 114.549 242.566 114.347 242.768 114.146C243.374 112.934 242.163 111.723 240.952 112.329C240.75 112.531 240.548 112.733 240.346 112.934Z" fill="white"/>
<path d="M289.969 10.0734C289.363 11.2846 290.574 12.4957 291.785 11.8901C291.987 11.6883 292.189 11.4864 292.391 11.2846C292.996 10.0734 291.785 8.86226 290.574 9.46784C290.372 9.66969 290.17 9.87156 289.969 10.0734Z" fill="white"/>
<path d="M129.181 86.0409C128.575 87.252 129.786 88.4631 130.997 87.8576C131.199 87.6557 131.401 87.4539 131.602 87.252C132.208 86.0409 130.997 84.8298 129.786 85.4354C129.584 85.6372 129.382 85.8391 129.181 86.0409Z" fill="white"/>
<path d="M186.981 187.793C186.376 189.004 187.587 190.215 188.798 189.61C189 189.408 189.201 189.206 189.403 189.004C190.009 187.793 188.798 186.582 187.587 187.188C187.183 187.188 186.981 187.39 186.981 187.793Z" fill="white"/>
<path d="M264.743 186.407C264.137 187.618 265.348 188.829 266.559 188.224C266.761 188.022 266.963 187.82 267.165 187.618C267.77 186.407 266.559 185.196 265.348 185.801C265.147 185.801 264.945 186.205 264.743 186.407Z" fill="white"/>
<path d="M205.003 216.489C204.397 217.7 205.608 218.911 206.819 218.306C207.021 218.104 207.223 217.902 207.425 217.7C208.03 216.489 206.819 215.278 205.608 215.883C205.205 216.085 205.003 216.287 205.003 216.489Z" fill="white"/>
<path d="M45.1786 214.826C44.5732 216.037 45.7841 217.248 46.995 216.642C47.1968 216.44 47.3987 216.239 47.6005 216.037C48.206 214.826 46.995 213.614 45.7841 214.22C45.5823 214.22 45.3804 214.422 45.1786 214.826Z" fill="white"/>
<path d="M92.4462 128.738C91.8407 129.949 93.0517 131.16 94.2626 130.555C94.4644 130.353 94.6662 130.151 94.8681 129.949C95.4735 128.738 94.2626 127.527 93.0516 128.132C92.648 128.334 92.4462 128.536 92.4462 128.738Z" fill="white"/>
<path d="M111.02 208.171C110.415 209.383 111.626 210.594 112.837 209.988C113.039 209.786 113.24 209.584 113.442 209.383C114.048 208.171 112.837 206.96 111.626 207.566C111.424 207.768 111.222 207.97 111.02 208.171Z" fill="white"/>
<path d="M34.3673 106.003C33.7618 107.214 34.9728 108.425 36.1837 107.82C36.3855 107.618 36.5873 107.416 36.7891 107.214C37.3946 106.003 36.1837 104.792 34.9728 105.398C34.7709 105.599 34.5691 105.801 34.3673 106.003Z" fill="white"/>
<path d="M27.9892 114.875C27.3837 116.087 28.5946 117.298 29.8056 116.692C30.0074 116.49 30.2092 116.288 30.411 116.087C31.0165 114.875 29.8056 113.664 28.5946 114.27C28.3928 114.27 28.191 114.472 27.9892 114.875Z" fill="white"/>
<path d="M20.3678 191.259C19.7624 192.47 20.9733 193.681 22.1842 193.076C22.386 192.874 22.5879 192.672 22.7897 192.47C23.3952 191.259 22.1842 190.048 20.9733 190.653C20.7715 190.855 20.5697 191.057 20.3678 191.259Z" fill="white"/>
<path d="M18.8429 170.187C18.2374 171.399 19.4484 172.61 20.6593 172.004C20.8611 171.802 21.0629 171.6 21.2648 171.399C21.8702 170.188 20.6593 168.977 19.4484 169.582C19.0447 169.784 18.8429 169.986 18.8429 170.187Z" fill="white"/>
<path d="M419.159 128.6C418.554 129.811 419.765 131.022 420.976 130.416C421.177 130.214 421.379 130.013 421.581 129.811C422.186 128.6 420.976 127.388 419.765 127.994C419.361 127.994 419.159 128.196 419.159 128.6Z" fill="white"/>
<path d="M396.149 50.1364C395.544 51.3475 396.755 52.5585 397.966 51.953C398.168 51.7512 398.369 51.5493 398.571 51.3475C399.177 50.1364 397.966 48.9253 396.755 49.5309C396.553 49.5309 396.351 49.7327 396.149 50.1364Z" fill="white"/>
<path d="M419.019 65.5241C418.413 66.7352 419.624 67.9462 420.835 67.3407C421.037 67.1388 421.239 66.937 421.44 66.7352C422.046 65.5241 420.835 64.3131 419.624 64.9186C419.422 64.9186 419.22 65.1204 419.019 65.5241Z" fill="white"/>
<path d="M469.199 88.6747C468.594 89.8857 469.805 91.0967 471.015 90.4912C471.217 90.2894 471.419 90.0875 471.621 89.8857C472.226 88.6747 471.015 87.4637 469.805 88.0692C469.603 88.0692 469.401 88.271 469.199 88.6747Z" fill="white"/>
<path d="M471.693 40.8485C471.088 42.0597 472.299 43.2709 473.51 42.6653C473.711 42.4634 473.913 42.2615 474.115 42.0597C474.721 40.8485 473.51 39.6373 472.299 40.2429C471.895 40.4448 471.693 40.6466 471.693 40.8485Z" fill="white"/>
<path d="M450.067 24.2132C449.462 25.4243 450.673 26.6355 451.884 26.0299C452.086 25.8281 452.288 25.6262 452.489 25.4244C453.095 24.2133 451.884 23.0021 450.673 23.6077C450.269 23.8095 450.067 24.0114 450.067 24.2132Z" fill="white"/>
<path d="M433.437 -1.98752C432.832 -0.77647 434.043 0.434571 435.254 -0.170956C435.456 -0.372798 435.657 -0.574647 435.859 -0.776489C436.465 -1.98754 435.254 -3.19858 434.043 -2.59306C433.841 -2.39121 433.639 -2.18937 433.437 -1.98752Z" fill="white"/>
<path d="M260.862 54.018C260.257 55.2292 261.468 56.4404 262.678 55.8348C262.88 55.6329 263.082 55.4311 263.284 55.2292C263.889 54.018 262.678 52.8068 261.468 53.4124C261.266 53.6143 261.064 53.8162 260.862 54.018Z" fill="white"/>
<path d="M248.388 42.9279C247.783 44.1391 248.994 45.3503 250.205 44.7447C250.407 44.5428 250.609 44.3409 250.81 44.1391C251.416 42.9279 250.205 41.7167 248.994 42.3223C248.792 42.3223 248.59 42.5242 248.388 42.9279Z" fill="white"/>
<path d="M12.8829 -2.12632C12.2774 -0.91521 13.4884 0.295915 14.6993 -0.309638C14.9011 -0.511489 15.103 -0.713347 15.3048 -0.915198C15.9102 -2.12631 14.6993 -3.33743 13.4884 -2.73188C13.0847 -2.53003 12.8829 -2.32817 12.8829 -2.12632Z" fill="white"/>
<g opacity="0.28">
<g opacity="0.28">
<path opacity="0.28" d="M77.9559 70.5148C78.5613 71.7259 77.3504 72.937 76.1395 72.3314C75.9376 72.1296 75.7358 71.9277 75.534 71.7259C74.9285 70.5148 76.1395 69.3037 77.3504 69.9092C77.754 69.9092 77.9559 70.1111 77.9559 70.5148Z" fill="white"/>
</g>
<g opacity="0.28">
<path opacity="0.28" d="M36.0954 26.5698C36.7009 27.7809 35.4899 28.992 34.279 28.3864C34.0772 28.1846 33.8753 27.9827 33.6735 27.7809C33.0681 26.5698 34.279 25.3587 35.4899 25.9642C35.8936 25.9642 36.0954 26.1661 36.0954 26.5698Z" fill="white"/>
</g>
<g opacity="0.28">
<path opacity="0.28" d="M41.9578 24.9314C42.5018 24.3873 42.5648 23.5682 42.0985 23.1018C41.6322 22.6355 40.8132 22.6985 40.2692 23.2426C39.7252 23.7867 39.6622 24.6058 40.1285 25.0721C40.5948 25.5385 41.4138 25.4755 41.9578 24.9314Z" fill="white"/>
</g>
<g opacity="0.28">
<path opacity="0.28" d="M9.75967 19.7768C10.3651 20.9879 9.1542 22.1989 7.94327 21.5934C7.74145 21.3916 7.53962 21.1898 7.3378 20.9879C6.73234 19.7769 7.94327 18.5658 9.1542 19.1713C9.55784 19.3732 9.75967 19.575 9.75967 19.7768Z" fill="white"/>
</g>
<g opacity="0.28">
<path opacity="0.28" d="M230.847 62.3356C231.452 63.5467 230.241 64.7579 229.03 64.1523C228.828 63.9504 228.627 63.7486 228.425 63.5467C227.819 62.3356 229.03 61.1244 230.241 61.73C230.645 61.9318 230.847 62.1337 230.847 62.3356Z" fill="white"/>
</g>
<g opacity="0.28">
<path opacity="0.28" d="M322.61 67.8807C323.216 69.0918 322.005 70.3029 320.794 69.6973C320.592 69.4955 320.39 69.2936 320.188 69.0918C319.583 67.8807 320.794 66.6697 322.005 67.2752C322.408 67.477 322.61 67.6789 322.61 67.8807Z" fill="white"/>
</g>
<g opacity="0.28">
<path opacity="0.28" d="M423.245 73.1487C423.851 74.3597 422.64 75.5707 421.429 74.9652C421.227 74.7634 421.025 74.5616 420.823 74.3597C420.218 73.1487 421.429 71.9376 422.64 72.5431C423.043 72.745 423.245 72.9468 423.245 73.1487Z" fill="white"/>
</g>
<g opacity="0.28">
<path opacity="0.28" d="M299.324 194.032C299.93 195.243 298.719 196.454 297.508 195.848C297.306 195.646 297.104 195.445 296.902 195.243C296.297 194.032 297.508 192.82 298.719 193.426C298.92 193.426 299.122 193.628 299.324 194.032Z" fill="white"/>
</g>
<g opacity="0.28">
<path opacity="0.28" d="M211.996 196.665C212.601 197.877 211.391 199.088 210.18 198.482C209.978 198.28 209.776 198.078 209.574 197.877C208.969 196.665 210.18 195.454 211.391 196.06C211.794 196.262 211.996 196.464 211.996 196.665Z" fill="white"/>
</g>
<g opacity="0.28">
<path opacity="0.28" d="M170.552 199.022C171.157 200.233 169.946 201.444 168.735 200.839C168.533 200.637 168.332 200.435 168.13 200.233C167.524 199.022 168.735 197.811 169.946 198.416C170.35 198.416 170.552 198.618 170.552 199.022Z" fill="white"/>
</g>
<g opacity="0.28">
<path opacity="0.28" d="M26.948 70.6531C27.5535 71.8642 26.3425 73.0753 25.1316 72.4697C24.9297 72.2679 24.728 72.066 24.5261 71.8642C23.9207 70.6531 25.1316 69.442 26.3425 70.0475C26.5443 70.0475 26.7462 70.2494 26.948 70.6531Z" fill="white"/>
</g>
<g opacity="0.28">
<path opacity="0.28" d="M46.7685 122.084C47.3739 123.295 46.163 124.506 44.9521 123.901C44.7502 123.699 44.5484 123.497 44.3466 123.295C43.7411 122.084 44.9521 120.873 46.163 121.478C46.5666 121.68 46.7685 121.882 46.7685 122.084Z" fill="white"/>
</g>
<g opacity="0.28">
<path opacity="0.28" d="M108.452 156.602C109.058 157.813 107.847 159.024 106.636 158.419C106.434 158.217 106.232 158.015 106.03 157.813C105.425 156.602 106.636 155.391 107.847 155.997C108.25 156.199 108.452 156.4 108.452 156.602Z" fill="white"/>
</g>
<g opacity="0.28">
<path opacity="0.28" d="M172.909 171.712C173.514 172.924 172.303 174.135 171.092 173.529C170.891 173.327 170.689 173.125 170.487 172.924C169.882 171.712 171.092 170.501 172.303 171.107C172.707 171.309 172.909 171.511 172.909 171.712Z" fill="white"/>
</g>
<g opacity="0.28">
<path opacity="0.28" d="M222.114 189.595C222.72 190.806 221.509 192.017 220.298 191.412C220.096 191.21 219.894 191.008 219.692 190.806C219.087 189.595 220.298 188.384 221.509 188.99C221.912 189.192 222.114 189.394 222.114 189.595Z" fill="white"/>
</g>
<g opacity="0.28">
<path opacity="0.28" d="M427.957 204.151C428.562 205.362 427.351 206.573 426.141 205.968C425.939 205.766 425.737 205.564 425.535 205.362C424.93 204.151 426.141 202.94 427.351 203.546C427.553 203.747 427.755 203.949 427.957 204.151Z" fill="white"/>
</g>
<g opacity="0.28">
<path opacity="0.28" d="M437.799 159.79C438.404 161.002 437.193 162.213 435.982 161.607C435.78 161.405 435.579 161.203 435.377 161.002C434.771 159.79 435.982 158.579 437.193 159.185C437.395 159.387 437.597 159.589 437.799 159.79Z" fill="white"/>
</g>
<g opacity="0.28">
<path opacity="0.28" d="M278.116 153.552C278.721 154.764 277.51 155.975 276.3 155.369C276.098 155.167 275.896 154.965 275.694 154.764C275.089 153.552 276.3 152.341 277.51 152.947C277.712 153.149 277.914 153.351 278.116 153.552Z" fill="white"/>
</g>
<g opacity="0.28">
<path opacity="0.28" d="M69.5028 141.908C70.1083 143.119 68.8974 144.33 67.6864 143.724C67.4846 143.522 67.2828 143.321 67.081 143.119C66.4755 141.908 67.6864 140.696 68.8974 141.302C69.0992 141.504 69.301 141.706 69.5028 141.908Z" fill="white"/>
</g>
<g opacity="0.28">
<path opacity="0.28" d="M34.7089 156.325C35.3144 157.536 34.1034 158.747 32.8925 158.141C32.6907 157.939 32.4888 157.738 32.287 157.536C31.6816 156.325 32.8925 155.114 34.1034 155.719C34.3053 155.921 34.5071 156.123 34.7089 156.325Z" fill="white"/>
</g>
<g opacity="0.28">
<path opacity="0.28" d="M115.937 191.675C116.543 192.886 115.332 194.097 114.121 193.492C113.919 193.29 113.717 193.088 113.516 192.886C112.91 191.675 114.121 190.464 115.332 191.069C115.534 191.271 115.736 191.473 115.937 191.675Z" fill="white"/>
</g>
<g opacity="0.28">
<path opacity="0.28" d="M21.8193 171.712C22.4248 172.924 21.2138 174.135 20.0029 173.529C19.8011 173.327 19.5993 173.125 19.3974 172.924C18.792 171.713 20.0029 170.501 21.2138 171.107C21.4157 171.309 21.6175 171.511 21.8193 171.712Z" fill="white"/>
</g>
<g opacity="0.28">
<path opacity="0.28" d="M161.17 35.1856C161.714 34.6415 161.777 33.8224 161.31 33.3561C160.844 32.8897 160.025 32.9527 159.481 33.4968C158.937 34.0409 158.874 34.86 159.34 35.3263C159.807 35.7927 160.626 35.7296 161.17 35.1856Z" fill="white"/>
</g>
<g opacity="0.28">
<path opacity="0.28" d="M190.649 94.3586C191.255 95.5697 190.044 96.7807 188.833 96.1752C188.631 95.9733 188.429 95.7715 188.228 95.5696C187.622 94.3585 188.833 93.1475 190.044 93.753C190.246 93.9549 190.649 94.1567 190.649 94.3586Z" fill="white"/>
</g>
<g opacity="0.28">
<path opacity="0.28" d="M337.856 29.758C338.462 30.9691 337.251 32.1801 336.04 31.5746C335.838 31.3728 335.636 31.1709 335.434 30.9691C334.829 29.758 336.04 28.547 337.251 29.1525C337.453 29.3544 337.655 29.5562 337.856 29.758Z" fill="white"/>
</g>
<g opacity="0.28">
<path opacity="0.28" d="M378.057 26.5697C378.662 27.7808 377.451 28.9919 376.24 28.3863C376.038 28.1845 375.836 27.9826 375.635 27.7808C375.029 26.5697 376.24 25.3586 377.451 25.9642C377.653 25.9642 377.855 26.166 378.057 26.5697Z" fill="white"/>
</g>
<g opacity="0.28">
<path opacity="0.28" d="M226.275 16.0342C226.881 17.2452 225.67 18.4563 224.459 17.8508C224.257 17.6489 224.055 17.4471 223.853 17.2452C223.248 16.0342 224.459 14.8231 225.67 15.4286C225.872 15.4286 226.275 15.6305 226.275 16.0342Z" fill="white"/>
</g>
<g opacity="0.28">
<path opacity="0.28" d="M333.7 21.9949C334.305 23.2059 333.095 24.417 331.884 23.8115C331.682 23.6096 331.48 23.4078 331.278 23.2059C330.673 21.9949 331.884 20.7838 333.095 21.3893C333.296 21.5912 333.498 21.793 333.7 21.9949Z" fill="white"/>
</g>
<g opacity="0.28">
<path opacity="0.28" d="M39.5614 90.4768C40.1669 91.6878 38.956 92.8989 37.745 92.2933C37.5432 92.0915 37.3414 91.8897 37.1396 91.6878C36.5341 90.4768 37.745 89.2657 38.956 89.8713C39.3596 89.8713 39.5614 90.0731 39.5614 90.4768Z" fill="white"/>
</g>
<g opacity="0.28">
<path opacity="0.28" d="M84.1942 104.894C84.7996 106.105 83.5887 107.316 82.3778 106.711C82.176 106.509 81.9741 106.307 81.7723 106.105C81.1668 104.894 82.3778 103.683 83.5887 104.288C83.7905 104.49 84.1942 104.692 84.1942 104.894Z" fill="white"/>
</g>
<g opacity="0.28">
<path opacity="0.28" d="M67.8389 200.963C68.4444 202.174 67.2334 203.385 66.0225 202.78C65.8206 202.578 65.6189 202.376 65.417 202.174C64.8116 200.963 66.0225 199.752 67.2334 200.357C67.6371 200.559 67.8389 200.761 67.8389 200.963Z" fill="white"/>
</g>
<g opacity="0.28">
<path opacity="0.28" d="M69.5028 181.694C70.1083 182.905 68.8974 184.116 67.6864 183.51C67.4846 183.308 67.2828 183.107 67.081 182.905C66.4755 181.694 67.6864 180.483 68.8974 181.088C69.0992 181.29 69.301 181.492 69.5028 181.694Z" fill="white"/>
</g>
<g opacity="0.28">
<path opacity="0.28" d="M344.373 212.746C344.978 213.957 343.767 215.168 342.556 214.563C342.355 214.361 342.153 214.159 341.951 213.957C341.345 212.746 342.556 211.535 343.767 212.141C343.969 212.141 344.171 212.343 344.373 212.746Z" fill="white"/>
</g>
<g opacity="0.28">
<path opacity="0.28" d="M365.44 159.929C366.046 161.14 364.835 162.351 363.624 161.746C363.422 161.544 363.22 161.342 363.018 161.14C362.413 159.929 363.624 158.718 364.835 159.324C365.037 159.525 365.239 159.727 365.44 159.929Z" fill="white"/>
</g>
<g opacity="0.28">
<path opacity="0.28" d="M367.244 118.896C367.85 120.107 366.639 121.318 365.428 120.712C365.226 120.51 365.024 120.309 364.822 120.107C364.217 118.896 365.428 117.685 366.639 118.29C366.84 118.492 367.042 118.694 367.244 118.896Z" fill="white"/>
</g>
<g opacity="0.28">
<path opacity="0.28" d="M393.72 147.869C394.325 149.08 393.114 150.291 391.903 149.685C391.701 149.484 391.499 149.282 391.298 149.08C390.692 147.869 391.903 146.658 393.114 147.263C393.316 147.263 393.518 147.465 393.72 147.869Z" fill="white"/>
</g>
<g opacity="0.28">
<path opacity="0.28" d="M290.451 130.817C291.057 132.028 289.846 133.239 288.635 132.634C288.433 132.432 288.231 132.23 288.029 132.028C287.424 130.817 288.635 129.606 289.846 130.212C290.249 130.414 290.451 130.616 290.451 130.817Z" fill="white"/>
</g>
<g opacity="0.28">
<path opacity="0.28" d="M186.769 118.341C187.375 119.552 186.164 120.763 184.953 120.157C184.751 119.956 184.549 119.754 184.348 119.552C183.742 118.341 184.953 117.13 186.164 117.735C186.568 117.735 186.769 117.937 186.769 118.341Z" fill="white"/>
</g>
<g opacity="0.28">
<path opacity="0.28" d="M162.927 103.092C163.532 104.303 162.321 105.514 161.11 104.909C160.908 104.707 160.707 104.505 160.505 104.303C159.899 103.092 161.11 101.881 162.321 102.487C162.523 102.688 162.725 102.89 162.927 103.092Z" fill="white"/>
</g>
<g opacity="0.28">
<path opacity="0.28" d="M137.977 45.0071C138.582 46.2182 137.371 47.4293 136.16 46.8237C135.958 46.6219 135.757 46.42 135.555 46.2182C134.949 45.0071 136.16 43.796 137.371 44.4015C137.573 44.4015 137.775 44.6034 137.977 45.0071Z" fill="white"/>
</g>
<g opacity="0.28">
<path opacity="0.28" d="M175.956 106.973C176.561 108.184 175.35 109.396 174.139 108.79C173.938 108.588 173.736 108.386 173.534 108.184C172.929 106.973 174.139 105.762 175.35 106.368C175.552 106.57 175.754 106.771 175.956 106.973Z" fill="white"/>
</g>
<g opacity="0.28">
<path opacity="0.28" d="M211.026 173.376C211.632 174.587 210.421 175.798 209.21 175.193C209.008 174.991 208.806 174.789 208.605 174.587C207.999 173.376 209.21 172.165 210.421 172.77C210.623 172.972 210.825 173.174 211.026 173.376Z" fill="white"/>
</g>
<g opacity="0.28">
<path opacity="0.28" d="M315.818 138.58C316.424 139.791 315.213 141.003 314.002 140.397C313.8 140.195 313.598 139.993 313.396 139.791C312.791 138.58 314.002 137.369 315.213 137.975C315.414 138.177 315.616 138.379 315.818 138.58Z" fill="white"/>
</g>
<g opacity="0.28">
<path opacity="0.28" d="M411.185 92.6949C411.791 93.906 410.58 95.1171 409.369 94.5115C409.167 94.3097 408.965 94.1078 408.764 93.906C408.158 92.6949 409.369 91.4839 410.58 92.0894C410.984 92.0894 411.185 92.2913 411.185 92.6949Z" fill="white"/>
</g>
<g opacity="0.28">
<path opacity="0.28" d="M434.193 10.0729C434.799 11.284 433.588 12.495 432.377 11.8895C432.175 11.6876 431.973 11.4858 431.771 11.284C431.166 10.073 432.377 8.86191 433.588 9.46742C433.991 9.66926 434.193 9.8711 434.193 10.0729Z" fill="white"/>
</g>
<g opacity="0.28">
<path opacity="0.28" d="M459.422 186.407C460.027 187.618 458.816 188.829 457.605 188.224C457.404 188.022 457.202 187.82 457 187.618C456.395 186.407 457.605 185.196 458.816 185.802C459.22 185.802 459.422 186.004 459.422 186.407Z" fill="white"/>
</g>
<g opacity="0.28">
<path opacity="0.28" d="M230.988 190.289C231.593 191.5 230.383 192.711 229.172 192.105C228.97 191.903 228.768 191.702 228.566 191.5C227.961 190.289 229.172 189.078 230.383 189.683C230.584 189.885 230.786 190.087 230.988 190.289Z" fill="white"/>
</g>
<g opacity="0.28">
<path opacity="0.28" d="M305.144 128.599C305.75 129.81 304.539 131.021 303.328 130.416C303.126 130.214 302.924 130.012 302.723 129.81C302.117 128.599 303.328 127.388 304.539 127.994C304.741 127.994 304.943 128.196 305.144 128.599Z" fill="white"/>
</g>
<g opacity="0.28">
<path opacity="0.28" d="M328.016 50.1364C328.622 51.3475 327.411 52.5585 326.2 51.953C325.998 51.7512 325.796 51.5493 325.594 51.3475C324.989 50.1364 326.2 48.9253 327.411 49.5309C327.613 49.5309 327.815 49.7327 328.016 50.1364Z" fill="white"/>
</g>
<g opacity="0.28">
<path opacity="0.28" d="M305.144 65.5241C305.75 66.7352 304.539 67.9462 303.328 67.3407C303.126 67.1388 302.924 66.937 302.723 66.7352C302.117 65.5241 303.328 64.3131 304.539 64.9186C304.943 64.9186 305.144 65.1204 305.144 65.5241Z" fill="white"/>
</g>
<g opacity="0.28">
<path opacity="0.28" d="M254.966 88.6747C255.572 89.8858 254.361 91.0969 253.15 90.4913C252.948 90.2895 252.746 90.0877 252.545 89.8858C251.939 88.6747 253.15 87.4636 254.361 88.0692C254.563 88.0692 254.765 88.271 254.966 88.6747Z" fill="white"/>
</g>
<g opacity="0.28">
<path opacity="0.28" d="M249.56 110.717C250.166 111.928 248.955 113.139 247.744 112.533C247.542 112.331 247.34 112.13 247.139 111.928C246.533 110.717 247.744 109.505 248.955 110.111C249.157 110.313 249.359 110.515 249.56 110.717Z" fill="white"/>
</g>
<g opacity="0.28">
<path opacity="0.28" d="M240.829 129.847C241.434 131.058 240.224 132.269 239.013 131.664C238.811 131.462 238.609 131.26 238.407 131.058C237.802 129.847 239.013 128.636 240.224 129.242C240.627 129.242 240.829 129.645 240.829 129.847Z" fill="white"/>
</g>
<g opacity="0.28">
<path opacity="0.28" d="M241.385 70.2373C241.99 71.4483 240.779 72.6594 239.568 72.0539C239.366 71.852 239.165 71.6502 238.963 71.4483C238.357 70.2373 239.568 69.0263 240.779 69.6318C240.981 69.8337 241.183 70.0355 241.385 70.2373Z" fill="white"/>
</g>
<g opacity="0.28">
<path opacity="0.28" d="M252.611 40.8485C253.217 42.0596 252.006 43.2707 250.795 42.6651C250.593 42.4633 250.391 42.2614 250.189 42.0596C249.584 40.8485 250.795 39.6374 252.006 40.2429C252.207 40.4448 252.409 40.6466 252.611 40.8485Z" fill="white"/>
</g>
<g opacity="0.28">
<path opacity="0.28" d="M274.233 24.2131C274.839 25.4242 273.628 26.6353 272.417 26.0297C272.215 25.8279 272.013 25.626 271.812 25.4242C271.206 24.2131 272.417 23.0021 273.628 23.6076C273.83 23.8094 274.032 24.0113 274.233 24.2131Z" fill="white"/>
</g>
<g opacity="0.28">
<path opacity="0.28" d="M290.73 -1.98749C291.335 -0.77644 290.124 0.434601 288.913 -0.170925C288.711 -0.372768 288.509 -0.574616 288.308 -0.776458C287.702 -1.98751 288.913 -3.19855 290.124 -2.59303C290.528 -2.39118 290.73 -2.18934 290.73 -1.98749Z" fill="white"/>
</g>
<g opacity="0.28">
<path opacity="0.28" d="M463.302 54.0179C463.907 55.229 462.696 56.4401 461.485 55.8346C461.284 55.6327 461.082 55.4309 460.88 55.229C460.274 54.018 461.485 52.8069 462.696 53.4124C462.898 53.6143 463.1 53.8161 463.302 54.0179Z" fill="white"/>
</g>
<g opacity="0.28">
<path opacity="0.28" d="M475.778 42.9277C476.384 44.1388 475.173 45.3499 473.962 44.7444C473.76 44.5425 473.558 44.3407 473.357 44.1388C472.751 42.9277 473.962 41.7166 475.173 42.3222C475.577 42.3222 475.778 42.524 475.778 42.9277Z" fill="white"/>
</g>
</g>
<path d="M-2.36894 131.941C-0.926878 131.941 0.274839 149.781 0.274839 171.784C0.274839 193.787 -0.926878 211.627 -2.36894 211.627C-3.81101 211.627 -5.01273 193.787 -5.01273 171.784C-5.01273 149.781 -3.81101 131.941 -2.36894 131.941Z" fill="url(#paint0_radial_16_23)"/>
<path d="M-2.36938 173.965C24.3111 173.965 45.9398 172.988 45.9398 171.784C45.9398 170.58 24.3111 169.604 -2.36938 169.604C-29.0498 169.604 -50.6786 170.58 -50.6786 171.784C-50.6786 172.988 -29.0498 173.965 -2.36938 173.965Z" fill="url(#paint1_radial_16_23)"/>
<rect x="-32" y="-2" width="537" height="228" fill="url(#paint2_radial_16_23)"/>
</g>
<defs>
<radialGradient id="paint0_radial_16_23" cx="0" cy="0" r="1" gradientUnits="userSpaceOnUse" gradientTransform="translate(-2.40965 169.795) rotate(180) scale(2.46545 37.0415)">
<stop stop-color="white"/>
<stop offset="0.552083" stop-color="white" stop-opacity="0"/>
</radialGradient>
<radialGradient id="paint1_radial_16_23" cx="0" cy="0" r="1" gradientUnits="userSpaceOnUse" gradientTransform="translate(-3.11311 171.675) rotate(180) scale(45.0505 2.02714)">
<stop stop-color="white"/>
<stop offset="0.552083" stop-color="white" stop-opacity="0"/>
</radialGradient>
<radialGradient id="paint2_radial_16_23" cx="0" cy="0" r="1" gradientUnits="userSpaceOnUse" gradientTransform="translate(236.5 112) rotate(90) scale(114 268.5)">
<stop stop-color="#090909" stop-opacity="0"/>
<stop offset="1" stop-color="#090909"/>
</radialGradient>
<clipPath id="clip0_16_23">
<rect width="473" height="224" fill="white"/>
</clipPath>
</defs>
</svg>
