<svg width="55" height="56" viewBox="0 0 55 56" fill="none" xmlns="http://www.w3.org/2000/svg">
<path opacity="0.1" d="M46.3062 47.881C45.6197 48.7483 45.1484 49.819 44.845 50.9532C44.3678 49.7318 43.688 48.6083 42.8328 47.6615C42.9299 47.4512 42.9201 47.1919 42.7387 47.0229C42.5731 46.8684 42.2953 46.8149 42.0898 46.9258C41.3107 46.2352 40.4231 45.683 39.4376 45.3205C40.5638 45.052 41.6238 44.597 42.5874 43.7014C43.9605 42.4249 44.6034 40.7829 44.9414 39.0308C45.2629 40.4556 45.8147 41.81 46.6713 42.9221C46.7474 43.0215 46.8392 43.1033 46.9213 43.1974C46.9401 43.2402 46.9454 43.2861 46.9747 43.3251C47.0297 43.397 47.1057 43.4482 47.1847 43.4888C48.0256 44.3423 49.072 44.9312 50.2057 45.3029C48.7137 45.7465 47.3556 46.5579 46.3062 47.881ZM53.8139 44.8906C51.816 44.9335 49.6276 44.4639 48.0851 43.1301C48.0858 43.127 48.0881 43.1247 48.0904 43.1224C48.1476 43.0544 48.204 42.9924 48.268 42.9312C48.3938 42.8119 48.521 42.6941 48.6467 42.5748C48.8996 42.337 49.1518 42.0984 49.404 41.8605C49.9084 41.3863 50.3827 40.8762 50.8682 40.3814C51.0286 40.217 50.8178 39.9187 50.6183 40.0525C50.0484 40.4357 49.4657 40.8051 48.9102 41.2104C48.6316 41.4139 48.3531 41.6181 48.0746 41.8215C47.9353 41.9232 47.7968 42.0257 47.6568 42.1267C47.5852 42.1779 47.516 42.2223 47.4392 42.2643C47.4015 42.285 47.3639 42.3056 47.327 42.3263C47.2405 42.2146 47.1448 42.116 47.0658 41.9951C45.5037 39.6021 45.8719 36.7249 45.5662 34.0198C45.5022 33.4577 44.7773 33.463 44.7073 34.0198C44.5981 34.897 44.5733 35.8247 44.6267 36.757C44.361 38.7325 43.9206 40.695 42.6958 42.2215C42.2245 41.7718 41.7992 41.2762 41.3392 40.815C40.8296 40.3057 40.3207 39.7963 39.8118 39.2877C39.6153 39.0912 39.2359 39.3604 39.4151 39.599C39.8434 40.1711 40.2733 40.7424 40.7024 41.3144C41.1224 41.8735 41.5929 42.3936 41.9889 42.9718C41.9671 42.9909 41.9483 43.0123 41.9272 43.0314C40.2642 44.4861 38.3258 44.5893 36.2699 44.8371C35.7045 44.9059 35.6782 45.8015 36.2699 45.7579C38.0924 45.6241 40.0715 46.3216 41.547 47.5284C41.4386 47.6608 41.328 47.79 41.2248 47.9254C40.9937 48.2305 40.7769 48.5479 40.5556 48.8592C40.1235 49.4626 39.6582 50.027 39.1862 50.5968C39.0567 50.7528 39.0364 50.9769 39.1862 51.1299C39.3202 51.2653 39.5784 51.2836 39.7102 51.1299C39.9541 50.8446 40.1972 50.5601 40.4411 50.2748C40.685 49.9896 40.9478 49.7265 41.2113 49.4596C41.4657 49.2018 41.7224 48.9464 41.9746 48.6863C42.0996 48.5579 42.2132 48.4179 42.3307 48.2818C42.4504 48.4148 42.5769 48.5433 42.6845 48.6848C43.743 50.0768 44.2714 51.8388 44.4415 53.604C44.4159 54.2334 44.4318 54.8537 44.495 55.4418C44.5725 56.1684 45.6099 56.2035 45.6347 55.4418C45.6521 54.9149 45.6189 54.3879 45.561 53.8633C45.57 52.1509 45.905 50.3857 46.8076 48.9678C47.7697 49.9766 48.8703 50.8599 50.0514 51.5849C50.4241 51.8144 50.744 51.24 50.3894 50.9968C49.7797 50.5785 49.2294 50.1081 48.7197 49.5682C48.253 49.0733 47.8834 48.6007 47.5182 48.0454C49.1338 46.3147 51.5013 45.7136 53.8139 45.8229C54.4064 45.8099 54.4026 44.9182 53.8139 44.8906Z" fill="white"/>
<path opacity="0.1" d="M14.1858 43.3726C13.8305 43.8261 13.5602 44.3645 13.3585 44.9397C13.1191 44.4433 12.8293 43.976 12.489 43.5531C12.5018 43.4667 12.4988 43.3764 12.4815 43.2992C12.4431 43.1263 12.3091 42.9933 12.1548 42.9275C12.0629 42.8877 11.9718 42.8824 11.8807 42.8923C11.4275 42.464 10.9179 42.1046 10.3555 41.8392C10.9442 41.6503 11.5021 41.3642 12.0177 40.8855C12.7886 40.1704 13.1996 39.2817 13.4413 38.3257C13.6649 39.0201 13.9758 39.6748 14.383 40.2324C14.9017 40.9421 15.6041 41.4384 16.3847 41.7696C15.5469 42.09 14.7881 42.6047 14.1858 43.3726ZM19.2191 41.3566C17.922 41.3834 16.4924 41.0805 15.516 40.1857C15.6688 40.0174 15.8043 39.8354 15.9556 39.6672C16.1235 39.479 16.2801 39.2809 16.4284 39.076C16.5586 38.8955 16.6881 38.7073 16.7913 38.51C16.9087 38.2836 16.9569 38.0336 16.9795 37.7812C16.9938 37.629 16.8033 37.5862 16.7092 37.6672C16.5421 37.811 16.3704 37.9533 16.2357 38.1299C16.2138 38.1598 16.1913 38.1896 16.1687 38.2186C16.1905 38.1896 16.1732 38.2133 16.1604 38.2278C16.1258 38.2722 16.0919 38.3158 16.0565 38.3586C15.985 38.445 15.9112 38.5284 15.836 38.6102C15.6907 38.7678 15.5379 38.9161 15.3783 39.0569C15.3775 39.0569 15.3624 39.0706 15.3481 39.0821C15.3353 39.092 15.312 39.1089 15.3067 39.1127C15.2608 39.1433 15.2141 39.1723 15.1682 39.2014C15.0741 39.2595 14.9785 39.3154 14.8822 39.3681C14.8739 39.3727 14.8701 39.3804 14.8633 39.3857C13.9667 37.8316 14.3002 36.0351 13.9954 34.3419C13.9201 33.9228 13.2463 33.9281 13.1673 34.3419C13.0288 35.0638 13.0009 35.8462 13.0814 36.6263C12.9143 37.6091 12.641 38.5636 12.1013 39.3628C11.627 38.9605 11.1866 38.5268 10.7508 38.0802C10.2486 37.564 9.74577 37.0485 9.2429 36.5323C8.9064 36.1873 8.39073 36.7135 8.71895 37.0653C9.20301 37.5846 9.68857 38.1039 10.1726 38.624C10.622 39.1058 11.0707 39.5869 11.4622 40.1161C11.4494 40.1276 11.4403 40.1421 11.4268 40.1536C10.3676 41.0843 9.13225 41.16 7.82011 41.3245C7.25626 41.3956 7.22841 42.2912 7.82011 42.2453C9.03062 42.152 10.3751 42.6376 11.3214 43.4858C11.2875 43.5768 11.2717 43.6716 11.277 43.7726C11.2785 43.7741 11.2777 43.7841 11.277 43.8001C11.2777 43.8063 11.2762 43.8108 11.277 43.817C11.2725 43.8353 11.2732 43.8391 11.2853 43.8162C11.2823 43.8208 11.2792 43.8246 11.2762 43.8284C11.2777 43.8384 11.2747 43.8453 11.2762 43.8544C11.2792 43.8713 11.2815 43.8889 11.2868 43.9049C11.2777 43.8782 11.2747 43.856 11.2725 43.8353C11.2695 43.8399 11.2664 43.8437 11.2634 43.8476C11.2461 43.8743 11.2288 43.9011 11.21 43.9263C11.0707 44.1298 10.9585 44.2735 10.7892 44.4716C10.479 44.8319 10.1116 45.1844 9.75255 45.4597C9.61554 45.5645 9.54478 45.7381 9.63812 45.901C9.72018 46.0425 9.93247 46.1175 10.0732 46.0173C10.5114 45.7037 10.9217 45.3496 11.2868 44.9504C11.4742 44.7462 11.6474 44.5297 11.8137 44.3072C11.8273 44.2888 11.8416 44.2697 11.8551 44.2506C11.8566 44.2506 11.8559 44.2514 11.8566 44.2506C11.8634 44.2468 11.8702 44.2422 11.877 44.2384C11.8815 44.2368 11.883 44.2376 11.8935 44.2345C11.9033 44.2322 11.9123 44.2292 11.9206 44.2269C11.9364 44.2223 11.9485 44.2116 11.9628 44.2055C12.5522 45.059 12.8405 46.1244 12.9331 47.1821C12.9158 47.5912 12.9234 47.9943 12.9648 48.3759C13.0423 49.1017 14.0819 49.1377 14.1045 48.3759C14.115 48.0341 14.0917 47.693 14.0533 47.3526C14.0533 46.2261 14.2596 45.0674 14.8897 44.1443C14.9243 44.0938 14.9649 44.054 15.0011 44.0066C15.4347 44.4311 15.9361 44.7913 16.3787 45.2035C16.9223 45.7091 17.4921 46.1848 18.0793 46.6368C18.3962 46.88 18.8231 46.324 18.5069 46.0731C17.9423 45.6272 17.3988 45.1546 16.8778 44.6552C16.4224 44.2177 16.0987 43.7259 15.7275 43.2556C16.7032 42.4984 17.9799 42.2315 19.2191 42.2889C19.8115 42.2774 19.8077 41.3841 19.2191 41.3566Z" fill="white"/>
<path opacity="0.1" d="M38.4642 14.779C39.007 14.2696 39.3277 13.6563 39.5257 12.994C39.7018 13.4467 39.9201 13.8735 40.1851 14.2383C40.5592 14.7538 41.0546 15.13 41.6056 15.3992C41.0109 15.6585 40.4696 16.0424 40.0315 16.5961C39.7884 16.9036 39.5941 17.2646 39.4375 17.6485C38.9422 16.7346 38.215 15.9682 37.3229 15.4887C37.7249 15.335 38.1081 15.1132 38.4642 14.779ZM35.0796 15.8788C35.9544 15.8076 36.9345 16.1281 37.6557 16.7101C37.5465 16.8608 37.4351 17.0107 37.3305 17.1652C37.1882 17.3755 37.0369 17.5697 36.8758 17.7655C36.5408 18.1709 36.2178 18.5862 35.8934 19.0014C35.8068 19.1123 35.7872 19.2645 35.8934 19.3731C35.989 19.4695 36.1659 19.4787 36.26 19.3731C36.6078 18.9823 36.9571 18.5923 37.2951 18.1923C37.4607 17.9965 37.6248 17.8076 37.807 17.6286C37.9342 17.5047 38.0629 17.3801 38.1872 17.2523C38.1992 17.2684 38.2143 17.2822 38.2263 17.2982C38.7096 17.9629 38.9302 18.824 39.0009 19.6699C38.9851 19.9972 38.9904 20.3192 39.0235 20.6251C39.1018 21.3501 40.1414 21.3869 40.1633 20.6251C40.1715 20.3513 40.152 20.0775 40.1204 19.8068C40.1181 19.0251 40.2461 18.2298 40.6277 17.5575C40.7595 17.6807 40.8935 17.8007 41.0192 17.93C41.2511 18.1686 41.4807 18.4095 41.7223 18.6389C41.9572 18.8615 42.1853 19.094 42.4337 19.2997C42.564 19.4068 42.6897 19.5246 42.8259 19.6217C42.9614 19.7173 43.1233 19.7869 43.2678 19.8664C43.3439 19.907 43.4154 19.8267 43.3807 19.7517C43.3122 19.6056 43.2528 19.4473 43.1722 19.3081C43.0924 19.1689 42.9787 19.0412 42.8831 18.9127C42.6806 18.6374 42.4503 18.3843 42.2274 18.125C42.0159 17.8795 41.7916 17.6462 41.5687 17.4107C41.4144 17.2478 41.2691 17.0764 41.1216 16.9067C41.8955 16.135 43.0073 15.865 44.0839 15.9147C44.6756 15.9033 44.6718 15.01 44.0839 14.9824C43.0615 15.0031 41.9158 14.7668 41.1622 14.0349C41.2518 13.9331 41.3437 13.8307 41.4122 13.7159C41.4867 13.5913 41.5529 13.4612 41.6229 13.3343C41.6967 13.1974 41.7788 13.0674 41.8751 12.9458C41.9707 12.8249 42.0942 12.7202 42.2041 12.61C42.6437 12.168 43.0804 11.729 43.4665 11.2372C43.5576 11.121 43.578 10.9611 43.4665 10.8487C43.3664 10.747 43.1835 10.7386 43.0841 10.8487C42.6633 11.3099 42.2831 11.8047 41.8841 12.2857C41.6869 12.5228 41.4995 12.7431 41.236 12.9068C41.1148 12.9817 40.9928 13.0559 40.8709 13.1309C40.7881 13.1821 40.7136 13.2433 40.6406 13.309C40.0556 12.1205 40.3379 10.776 40.0443 9.51488C39.9472 9.09577 39.3171 9.10266 39.2162 9.51488C39.0657 10.129 39.0514 10.8097 39.1402 11.4866C39.0183 12.1083 38.8353 12.7095 38.5267 13.2364C38.2557 12.9435 37.9628 12.6689 37.6956 12.3745C37.3365 11.9806 36.9849 11.5829 36.6138 11.2013C36.5257 11.111 36.3789 11.1026 36.2818 11.1814C36.1937 11.2533 36.138 11.4101 36.2171 11.5125C36.537 11.934 36.857 12.3607 37.1438 12.8066C37.405 13.2119 37.5954 13.6609 37.8296 14.0815C37.0158 14.7668 36.0771 14.8279 35.0796 14.958C34.5165 15.0314 34.4879 15.9277 35.0796 15.8788Z" fill="white"/>
<path opacity="0.1" d="M6.13514 10.9796C7.0114 10.1689 7.47588 9.1563 7.73861 8.06493C7.98026 8.8695 8.33483 9.62664 8.80759 10.2721C9.39628 11.0759 10.198 11.632 11.0901 11.9906C10.134 12.3379 9.27057 12.9145 8.58928 13.7864C8.18051 14.3095 7.87262 14.9344 7.65129 15.6013C6.93237 14.0388 5.73541 12.7356 4.20722 12.0526C4.89077 11.8492 5.53817 11.531 6.13514 10.9796ZM1.55058 12.4625C2.89057 12.3616 4.36004 12.8977 5.40643 13.8238C5.08047 14.1321 4.74924 14.4365 4.43382 14.7554C4.06645 15.1271 3.69982 15.4988 3.3317 15.8705C3.18114 16.0227 3.17061 16.3026 3.3317 16.4533C3.50109 16.6108 3.73747 16.6077 3.9061 16.4533C4.29154 16.1007 4.67696 15.7473 5.0624 15.3947C5.39062 15.0942 5.70454 14.7783 6.02222 14.4671C6.76674 15.4338 7.12056 16.6926 7.23198 17.937C7.2124 18.3874 7.22219 18.8318 7.26736 19.2532C7.34414 19.979 8.38377 20.0141 8.40635 19.2532C8.41765 18.8777 8.39356 18.5037 8.3514 18.1312C8.35291 16.8815 8.58551 15.5944 9.28336 14.5718C9.29164 14.5581 9.3037 14.5481 9.31273 14.5351C9.79151 14.9971 10.268 15.4613 10.7423 15.9286C10.8778 16.0617 11.1172 16.0754 11.2504 15.9286C11.3867 15.7771 11.3844 15.5653 11.2504 15.4139C10.795 14.9015 10.3448 14.3867 9.89464 13.8697C11.0095 12.8151 12.5724 12.4403 14.0893 12.5107C14.6817 12.4992 14.6787 11.6052 14.0893 11.5792C12.5332 11.6106 10.804 11.2213 9.72752 10.0312C9.95713 9.81326 10.0625 9.58535 10.2793 9.36356C10.4893 9.14865 10.6986 8.93296 10.9079 8.71576C11.3189 8.28747 11.7646 7.89438 12.1854 7.47527C12.5159 7.14565 12.0078 6.63092 11.6773 6.95978C11.2587 7.37736 10.853 7.81791 10.4126 8.21255C10.1943 8.40681 9.96766 8.59494 9.75462 8.79455C9.58147 8.95669 9.37145 9.07522 9.17722 9.21747C8.30247 7.54791 8.5953 5.63593 8.30246 3.82642C8.23395 3.40808 7.54664 3.4119 7.47362 3.82642C7.34188 4.58434 7.31479 5.39884 7.38781 6.21336C7.19208 7.43933 6.8759 8.64158 6.14343 9.60293C5.96426 9.45532 5.79865 9.31002 5.60141 9.13565C5.35148 8.91386 5.1008 8.69205 4.85012 8.47026C4.34951 8.02668 3.85868 7.57318 3.3656 7.12118C3.10588 6.88333 2.7498 7.24585 2.98241 7.5097C3.42581 8.01218 3.87148 8.51309 4.30584 9.02321C4.51738 9.271 4.72891 9.51881 4.94045 9.76661C5.11736 9.9754 5.26793 10.1528 5.41924 10.344C4.27423 11.2763 2.9538 11.3689 1.55058 11.5417C0.986733 11.6121 0.95888 12.5076 1.55058 12.4625Z" fill="white"/>
<path opacity="0.1" d="M26.2418 39.2328C26.15 39.261 26.0664 39.3222 26.0145 39.4163C25.3166 37.2007 24.2416 35.1136 22.7578 33.2834C21.2229 31.3905 19.3085 30.1814 17.1615 29.1206C16.2792 28.6847 15.4007 28.3367 14.5064 28.0797C15.9164 27.8671 17.3015 27.529 18.6732 26.8614C19.7963 26.3153 20.7765 25.6155 21.6309 24.8033C21.7792 24.8102 21.9305 24.7796 22.06 24.6779C22.2384 24.5387 22.3144 24.3222 22.3031 24.1081C24.2657 21.9208 25.4401 19.065 25.9806 16.0555C26.08 15.5033 26.1545 14.9481 26.2275 14.3936C26.6265 17.6096 27.5811 20.7399 29.4759 23.289C31.196 25.604 33.6742 27.0709 36.376 27.8763C36.4106 27.981 36.4897 28.0675 36.6357 28.0896C36.693 28.0988 36.7517 28.1057 36.8097 28.1141C36.3166 28.2326 35.8273 28.3734 35.3462 28.5546C32.9892 29.4395 30.6314 31.0433 29.046 33.0386C27.6676 34.7724 26.7613 36.9445 26.2418 39.2328ZM32.7422 35.3009C32.5119 34.9789 32.2687 34.673 32.0113 34.3725C31.7696 34.091 31.5227 33.8141 31.2705 33.5411C31.1373 33.3973 30.992 33.2658 30.8497 33.1335C30.782 33.0707 30.7135 33.008 30.6457 32.9453C30.6164 32.9193 30.5885 32.891 30.5584 32.8666C32.0158 31.3423 33.9384 30.1026 35.8506 29.4074C37.39 28.8483 38.9935 28.6434 40.6098 28.6151C40.929 28.6349 41.2474 28.6479 41.5643 28.6533C42.1899 28.7023 42.8163 28.7443 43.4434 28.7772C44.568 28.8376 45.6935 28.9072 46.8204 28.9057C47.9059 28.9041 49.1782 29.0173 50.2171 28.6541C50.7101 28.4827 50.8073 27.6606 50.2171 27.5367C49.1669 27.3164 48.0204 27.4633 46.9499 27.4281C45.8244 27.3906 44.6982 27.3493 43.5728 27.2981C41.6087 27.2093 39.6409 27.1933 37.6761 27.2667C35.1565 26.7038 32.7724 25.5857 30.9837 23.7264C31.1267 23.6186 31.2608 23.5054 31.3812 23.3662C31.5175 23.2094 31.6409 23.0412 31.7794 22.8867C32.0632 22.5693 32.3546 22.2611 32.6459 21.9506C33.2203 21.338 33.7683 20.7002 34.2878 20.0386C34.4308 19.8581 34.4624 19.6072 34.2878 19.4306C34.1365 19.2761 33.8383 19.2531 33.6893 19.4306C33.1578 20.0661 32.6007 20.6787 32.0173 21.2661C31.7312 21.5537 31.4384 21.8251 31.1245 22.0821C30.8309 22.3215 30.4808 22.5181 30.1985 22.798C30.0886 22.6535 29.9757 22.5135 29.8726 22.3613C28.1231 19.7923 27.5276 16.844 27.2739 13.8246C27.2897 13.7741 27.3078 13.7267 27.3108 13.6663C27.4086 11.4928 27.4998 9.32071 27.5156 7.14562C27.5321 4.96441 27.2513 2.80156 27.2634 0.62418C27.2671 -0.0373726 26.2486 -0.0381355 26.2523 0.62418C26.2644 2.80156 25.9836 4.96441 26.0001 7.14562C26.0032 7.63433 26.022 8.12305 26.0325 8.61251C25.9971 9.42091 25.9851 10.2415 26.0001 11.069C25.5251 15.5064 24.7874 20.0371 21.7747 23.3326C21.5503 23.1138 21.329 22.8921 21.125 22.6481C20.8171 22.2779 20.5092 21.9085 20.2006 21.5384C19.5848 20.7988 18.9683 20.0585 18.3517 19.3182C18.0882 19.0015 17.5319 19.4283 17.7796 19.7679C18.3479 20.5449 18.9148 21.3227 19.4832 22.1005C19.767 22.4898 20.0508 22.8783 20.3353 23.2676C20.5499 23.5612 20.7306 23.8733 20.9127 24.1853C20.8691 24.2243 20.8314 24.2672 20.787 24.3062C19.0397 25.8174 16.8762 26.7329 14.6374 27.1673C14.1435 27.2629 13.6474 27.3195 13.1513 27.3661C9.13966 26.6235 4.90665 26.7359 0.879164 27.2422C0.395113 27.3027 0.380809 27.9718 0.879164 28.0185C2.96217 28.2151 5.04141 28.2403 7.13043 28.3122C8.05713 28.3436 8.98534 28.3696 9.91279 28.3925C9.98355 28.485 10.0957 28.547 10.2576 28.534C12.6515 28.3497 14.7104 28.8682 16.8514 29.9274C18.238 30.6119 19.52 31.3676 20.659 32.3442C20.5303 32.4903 20.4114 32.6379 20.3158 32.8169C20.2171 33.0012 20.1057 33.171 19.9785 33.3346C19.6992 33.6933 19.4154 34.0421 19.1256 34.39C18.5467 35.086 17.9881 35.798 17.4461 36.5238C17.2338 36.8076 17.7088 37.1823 17.9362 36.907C18.5015 36.224 19.0827 35.5556 19.6826 34.9032C19.9807 34.5797 20.2857 34.2722 20.6086 33.9763C20.7524 33.8455 20.8954 33.7254 21.0625 33.6252C21.2583 33.5075 21.4209 33.3706 21.5842 33.2184C21.7845 33.4302 21.9787 33.6513 22.1669 33.8845C24.1851 36.3846 25.2699 39.593 25.6652 42.838C25.3806 46.6956 25.3934 50.5441 26.1914 54.3719C26.3171 54.97 27.1888 54.8071 27.2084 54.232C27.3417 50.3736 27.0616 46.5389 26.8614 42.6942C27.036 39.5043 27.8686 36.2562 29.7363 33.8157C29.7664 33.834 29.7988 33.847 29.8281 33.87C29.8349 33.8769 29.8342 33.8761 29.8387 33.8791C29.85 33.8883 29.8613 33.8975 29.8726 33.9059C29.905 33.9319 29.9373 33.9572 29.9697 33.9832C30.1459 34.1239 30.3175 34.2715 30.4974 34.4069C30.7872 34.6248 31.0703 34.8382 31.3398 35.0546C31.6394 35.2948 31.9352 35.5349 32.2386 35.7705C32.5382 36.003 32.8093 36.2799 33.0818 36.5453C33.3174 36.7762 33.6208 36.4389 33.4311 36.1904C33.203 35.8929 32.9606 35.6061 32.7422 35.3009Z" fill="white"/>
</svg>
