<svg width="95" height="15" viewBox="0 0 95 15" fill="none" xmlns="http://www.w3.org/2000/svg">
<g opacity="0.2">
<path d="M40.2185 10.756C43.9367 10.8339 47.9347 10.1628 51.0928 8.0865C51.81 7.61481 52.4796 7.04315 53.0963 6.41504C53.0397 6.28807 52.9826 6.16295 52.9321 6.02739C52.3864 4.5608 52.1571 1.37428 53.6673 0.320487C55.0198 -0.622894 56.2953 0.679309 56.2652 2.1134C56.2309 3.7407 55.1112 5.32384 53.6847 6.64813C54.2238 7.66451 55.0523 8.50608 56.119 8.96427C57.5552 9.58072 59.1068 9.46049 60.5634 8.91581C60.5689 8.85325 60.5688 8.79436 60.5755 8.72995C60.8366 6.26661 61.7908 3.28925 63.7943 1.75825C65.337 0.579944 66.9536 2.28944 66.4356 3.94434C65.6703 6.3899 63.4351 8.33924 60.9647 9.20717C60.8607 10.4487 60.9834 11.6993 61.5213 12.8181C63.0266 15.9519 68.3176 14.3117 70.7182 13.5125C74.4256 12.2784 77.7395 9.88127 79.5059 6.44756C77.9735 4.91042 77.1342 2.57405 78.5451 0.901355C79.0234 0.33459 80.2712 0.42415 80.6695 1.04367C81.6376 2.55136 80.8567 4.77303 80.1738 6.23901C80.1461 6.2979 80.113 6.35248 80.0847 6.41014C80.9794 7.13577 82.1298 7.55164 83.2627 7.60009C83.3186 7.60255 83.3752 7.59888 83.4305 7.59888C83.8192 6.54631 84.3679 5.55938 84.9335 4.79266C85.3679 4.20442 90.0674 -0.598972 90.6426 2.22811C91.2966 5.44161 86.564 7.60563 83.6471 7.97795C83.1796 9.35438 83.1261 10.8302 83.8367 12.1974C86.1211 16.5917 92.1136 13.0426 94.6069 10.8222C94.8253 10.6284 95.146 10.9522 94.9263 11.1479C92.4566 13.3463 88.7744 15.5612 85.4485 14.251C82.6442 13.1451 82.4974 10.4578 83.2855 8.01536C83.0491 8.03437 82.8271 8.04113 82.6273 8.03254C81.7014 7.99328 80.7183 7.51301 79.8826 6.79535C77.4134 11.4454 72.1561 14.0357 67.1901 14.8564C62.8558 15.5728 60.3234 13.5885 60.5315 9.34578C57.7856 10.161 54.8459 9.61752 53.3544 6.93765C51.9844 8.13558 50.4009 9.09615 49.2319 9.63776C46.522 10.894 43.1774 11.2773 40.2161 11.2148C39.9279 11.2105 39.9273 10.7504 40.2185 10.756ZM89.9693 3.70512C91.7875 0.825295 87.8852 2.58141 87.6162 2.7642C86.5742 3.47265 85.7108 4.50191 84.966 5.51154C84.4967 6.14762 84.0881 6.85362 83.7921 7.59397C86.1759 7.44247 88.7359 5.65813 89.9693 3.70512ZM80.5703 3.49719C81.0438 1.96435 80.3025 1.66072 78.3471 2.58816C78.3333 3.11505 78.4091 3.62661 78.5746 4.12161C78.7767 4.88466 79.178 5.53546 79.7015 6.06235C80.0775 5.25944 80.3741 4.40561 80.5703 3.49719ZM65.3255 5.26128C65.7521 4.662 66.0012 3.98299 66.0734 3.22301C64.5747 1.59325 63.4123 1.78585 62.5868 3.80081C62.0694 4.61477 61.786 5.61152 61.5014 6.52853C61.2842 7.23024 61.1115 7.97489 61.0123 8.72873C62.7487 7.9663 64.3124 6.63218 65.3255 5.26128ZM54.8255 4.35838C55.2021 3.81492 55.4963 3.22607 55.7087 2.59245C54.9879 2.12383 54.2665 1.65521 53.5457 1.18658C53.3538 1.55277 53.2184 1.9392 53.1402 2.34464C52.8328 3.57202 52.9519 4.90245 53.4218 6.07217C53.9278 5.52442 54.3983 4.946 54.8255 4.35838Z" fill="white"/>
<path d="M54.7815 10.756C51.0633 10.8339 47.0653 10.1628 43.9072 8.0865C43.19 7.61481 42.5204 7.04315 41.9037 6.41504C41.9603 6.28807 42.0174 6.16295 42.0679 6.02739C42.6136 4.5608 42.8429 1.37428 41.3327 0.320487C39.9802 -0.622894 38.7047 0.679309 38.7348 2.1134C38.7691 3.7407 39.8888 5.32384 41.3153 6.64813C40.7762 7.66451 39.9477 8.50608 38.881 8.96427C37.4448 9.58072 35.8932 9.46049 34.4366 8.91581C34.4311 8.85325 34.4312 8.79436 34.4245 8.72995C34.1634 6.26661 33.2092 3.28925 31.2057 1.75825C29.663 0.579944 28.0464 2.28944 28.5644 3.94434C29.3297 6.3899 31.5649 8.33924 34.0353 9.20717C34.1393 10.4487 34.0166 11.6993 33.4787 12.8181C31.9734 15.9519 26.6824 14.3117 24.2818 13.5125C20.5744 12.2784 17.2605 9.88127 15.4941 6.44756C17.0265 4.91042 17.8658 2.57405 16.4549 0.901355C15.9766 0.33459 14.7288 0.42415 14.3305 1.04367C13.3624 2.55136 14.1433 4.77303 14.8262 6.23901C14.8539 6.2979 14.887 6.35248 14.9153 6.41014C14.0206 7.13577 12.8702 7.55164 11.7373 7.60009C11.6814 7.60255 11.6248 7.59888 11.5695 7.59888C11.1808 6.54631 10.6321 5.55938 10.0665 4.79266C9.63213 4.20442 4.93261 -0.598972 4.35743 2.22811C3.70343 5.44161 8.43604 7.60563 11.3529 7.97795C11.8204 9.35438 11.8739 10.8302 11.1633 12.1974C8.87886 16.5917 2.88637 13.0426 0.393117 10.8222C0.174716 10.6284 -0.145951 10.9522 0.0736528 11.1479C2.54345 13.3463 6.22557 15.5612 9.55152 14.251C12.3558 13.1451 12.5026 10.4578 11.7145 8.01536C11.9509 8.03437 12.1729 8.04113 12.3727 8.03254C13.2986 7.99328 14.2817 7.51301 15.1174 6.79535C17.5866 11.4454 22.8439 14.0357 27.8099 14.8564C32.1442 15.5728 34.6766 13.5885 34.4685 9.34578C37.2144 10.161 40.1541 9.61752 41.6456 6.93765C43.0156 8.13558 44.5991 9.09615 45.7681 9.63776C48.478 10.894 51.8226 11.2773 54.7839 11.2148C55.0721 11.2105 55.0727 10.7504 54.7815 10.756ZM5.03068 3.70512C3.21248 0.825295 7.11482 2.58141 7.38376 2.7642C8.42582 3.47265 9.2892 4.50191 10.034 5.51154C10.5033 6.14762 10.9119 6.85362 11.2079 7.59397C8.82411 7.44247 6.26407 5.65813 5.03068 3.70512ZM14.4297 3.49719C13.9562 1.96435 14.6975 1.66072 16.6529 2.58816C16.6667 3.11505 16.5909 3.62661 16.4254 4.12161C16.2233 4.88466 15.822 5.53546 15.2985 6.06235C14.9225 5.25944 14.6259 4.40561 14.4297 3.49719ZM29.6745 5.26128C29.2479 4.662 28.9988 3.98299 28.9266 3.22301C30.4253 1.59325 31.5877 1.78585 32.4132 3.80081C32.9306 4.61477 33.214 5.61152 33.4986 6.52853C33.7158 7.23024 33.8885 7.97489 33.9877 8.72873C32.2513 7.9663 30.6876 6.63218 29.6745 5.26128ZM40.1745 4.35838C39.7979 3.81492 39.5037 3.22607 39.2913 2.59245C40.0121 2.12383 40.7335 1.65521 41.4543 1.18658C41.6462 1.55277 41.7816 1.9392 41.8598 2.34464C42.1672 3.57202 42.0481 4.90245 41.5782 6.07217C41.0722 5.52442 40.6017 4.946 40.1745 4.35838Z" fill="white"/>
</g>
</svg>
