<svg width="39" height="39" viewBox="0 0 39 39" fill="none" xmlns="http://www.w3.org/2000/svg">
<path d="M15.7122 15.3848V13.8822C15.1908 13.8081 14.6646 13.77 14.1381 13.7675C7.69668 13.7675 2.45605 19.0089 2.45605 25.4503C2.45605 29.4016 4.43082 32.8995 7.44326 35.0146C5.42612 32.8575 4.30453 30.0142 4.30624 27.0608C4.30624 20.711 9.3979 15.5329 15.7122 15.3848Z" fill="#00F2EA"/>
<path d="M15.988 32.3957C18.8622 32.3957 21.2064 30.1092 21.3134 27.2599L21.3233 1.82433H25.9701C25.8708 1.29307 25.8207 0.754112 25.8203 0.213867H19.4735L19.4628 25.6503C19.3571 28.4988 17.0116 30.7843 14.1383 30.7843C13.2757 30.7848 12.4259 30.5746 11.6631 30.1717C12.6627 31.5665 14.2723 32.3939 15.988 32.3957ZM34.65 10.4584V9.04485C32.9424 9.04656 31.2711 8.54955 29.8418 7.61547C31.0952 9.05855 32.7823 10.056 34.6509 10.4584" fill="#00F2EA"/>
<path d="M29.8414 7.61414C28.4408 6.01138 27.6689 3.95443 27.6698 1.82556H25.9694C26.4142 4.20315 27.8136 6.29521 29.8414 7.61414ZM14.138 20.1142C11.1927 20.1177 8.80616 22.5042 8.80273 25.4495C8.80445 27.4324 9.90548 29.2509 11.6619 30.1721C11.0057 29.2672 10.6525 28.1785 10.6525 27.0608C10.6555 24.1156 13.0421 21.7281 15.9877 21.7247C16.5374 21.7247 17.0644 21.8155 17.5618 21.9717V15.4922C17.0404 15.4181 16.5143 15.38 15.9877 15.3775C15.8953 15.3775 15.8041 15.3826 15.7125 15.3843V20.3613C15.203 20.1994 14.6722 20.116 14.138 20.1142Z" fill="#FF004F"/>
<path d="M34.65 10.4584V15.3913C31.3584 15.3913 28.31 14.3386 25.8199 12.5518V25.45C25.8199 31.8914 20.5801 37.132 14.1387 37.132C11.6494 37.132 9.34112 36.3465 7.44385 35.0143C9.64892 37.3923 12.7453 38.7434 15.988 38.7425C22.4294 38.7425 27.6701 33.5019 27.6701 27.0613V14.1631C30.2424 16.0129 33.3319 17.0064 36.5002 17.0026V10.6541C35.8649 10.6541 35.2472 10.5852 34.6496 10.4572" fill="#FF004F"/>
<path d="M25.8192 25.4495V12.5513C28.3916 14.4014 31.481 15.3946 34.6493 15.3907V10.4583C32.7811 10.0555 31.0941 9.05764 29.8411 7.61414C27.8132 6.29521 26.4138 4.20315 25.969 1.82556H21.3226L21.3127 27.2611C21.2061 30.1096 18.8615 32.396 15.9873 32.396C14.272 32.3943 12.662 31.5664 11.6628 30.1726C9.90637 29.2517 8.80491 27.4332 8.80277 25.4499C8.80619 22.5047 11.1928 20.1181 14.138 20.1147C14.6868 20.1147 15.2138 20.2046 15.7121 20.3617V15.3848C9.39781 15.5329 4.30615 20.711 4.30615 27.0608C4.30615 30.1315 5.49923 32.9269 7.44317 35.0146C9.40294 36.3944 11.7416 37.1337 14.138 37.1315C20.5798 37.1315 25.8192 31.8909 25.8192 25.4495Z" fill="url(#paint0_linear_2019_1437)"/>
<defs>
<linearGradient id="paint0_linear_2019_1437" x1="19.4777" y1="1.82556" x2="19.4777" y2="37.1315" gradientUnits="userSpaceOnUse">
<stop stop-color="white"/>
<stop offset="1" stop-color="#E2E2E2"/>
</linearGradient>
</defs>
</svg>
